<svg width="22" height="22" viewBox="0 0 22 22" fill="none" xmlns="http://www.w3.org/2000/svg">
<path d="M11.3493 2.84242C14.1343 2.84242 14.4824 2.84242 15.6138 2.92945C18.4858 3.01648 19.7913 4.40898 19.8783 7.19398C19.9653 8.32539 19.9653 8.58648 19.9653 11.3715C19.9653 14.1565 19.9653 14.5046 19.8783 15.549C19.7913 18.334 18.3988 19.7265 15.6138 19.8135C14.4824 19.9005 14.2213 19.9005 11.3493 19.9005C8.56426 19.9005 8.21614 19.9005 7.17176 19.8135C4.29973 19.7265 2.99427 18.334 2.90723 15.549C2.8202 14.4176 2.8202 14.1565 2.8202 11.3715C2.8202 8.58648 2.8202 8.23835 2.90723 7.19398C2.99427 4.40898 4.38677 3.01648 7.17176 2.92945C8.21614 2.84242 8.56426 2.84242 11.3493 2.84242ZM11.3493 0.927734C8.47723 0.927734 8.12911 0.927734 7.08473 1.01477C3.25536 1.18883 1.16661 3.27758 0.992549 7.10695C0.905518 8.15132 0.905518 8.49945 0.905518 11.3715C0.905518 14.2435 0.905518 14.5916 0.992549 15.636C1.16661 19.4654 3.25536 21.5541 7.08473 21.7282C8.12911 21.8152 8.47723 21.8152 11.3493 21.8152C14.2213 21.8152 14.5694 21.8152 15.6138 21.7282C19.4432 21.5541 21.5319 19.4654 21.706 15.636C21.793 14.5916 21.793 14.2435 21.793 11.3715C21.793 8.49945 21.793 8.15132 21.706 7.10695C21.5319 3.27758 19.4432 1.18883 15.6138 1.01477C14.5694 0.927734 14.2213 0.927734 11.3493 0.927734ZM11.3493 5.97554C8.3902 5.97554 5.95333 8.41242 5.95333 11.3715C5.95333 14.3305 8.3902 16.7674 11.3493 16.7674C14.3083 16.7674 16.7452 14.3305 16.7452 11.3715C16.7452 8.41242 14.3083 5.97554 11.3493 5.97554ZM11.3493 14.8527C9.43457 14.8527 7.86801 13.2862 7.86801 11.3715C7.86801 9.45679 9.43457 7.89023 11.3493 7.89023C13.2639 7.89023 14.8305 9.45679 14.8305 11.3715C14.8305 13.2862 13.2639 14.8527 11.3493 14.8527ZM16.9193 4.58304C16.223 4.58304 15.7008 5.10523 15.7008 5.80148C15.7008 6.49773 16.223 7.01992 16.9193 7.01992C17.6155 7.01992 18.1377 6.49773 18.1377 5.80148C18.1377 5.10523 17.6155 4.58304 16.9193 4.58304Z" fill="white"/>
</svg>
