<svg width="23" height="18" viewBox="0 0 23 18" fill="none" xmlns="http://www.w3.org/2000/svg">
<path d="M4.3916 1.07031C7.80952 0.785514 15.4042 0.785526 18.8223 1.07031C22.525 1.35514 23 3.5386 23 9.4248C23 15.3113 22.525 17.5904 18.8223 17.7803C15.6177 17.9583 8.7422 17.9692 5.0791 17.8135L4.3916 17.7803C0.688823 17.4954 0.213867 15.3113 0.213867 9.4248C0.213886 3.7225 0.659474 1.49511 4.05371 1.10254L4.3916 1.07031ZM18.6436 3.21582C15.3445 2.94094 7.86924 2.94093 4.57031 3.21582L4.55664 3.2168C3.81651 3.27373 3.45504 3.4123 3.27832 3.51758C3.14697 3.59587 3.01899 3.71037 2.88379 4.0166C2.72589 4.37435 2.5809 4.9495 2.48828 5.8877C2.3968 6.81446 2.36622 7.96747 2.36621 9.4248C2.36621 10.882 2.39683 12.0352 2.48828 12.9619C2.58091 13.9002 2.72587 14.4762 2.88379 14.834C3.019 15.1402 3.14695 15.2547 3.27832 15.333C3.4538 15.4375 3.81132 15.5742 4.54102 15.6318C7.89428 15.8156 15.3747 15.8158 18.7031 15.6309L18.7129 15.6299C19.441 15.5925 19.7858 15.4605 19.9463 15.3662C20.0627 15.2977 20.1903 15.1909 20.3281 14.876C20.4879 14.5108 20.6327 13.9247 20.7256 12.9775C20.8172 12.0423 20.8477 10.882 20.8477 9.4248C20.8477 7.96747 20.8171 6.81446 20.7256 5.8877C20.633 4.94975 20.4889 4.37436 20.3311 4.0166C20.1958 3.71024 20.067 3.59587 19.9355 3.51758C19.7588 3.4123 19.3974 3.27373 18.6572 3.2168L18.6436 3.21582ZM8.75879 7.36914C8.75899 6.56919 9.60083 6.0486 10.3164 6.40625L14.4287 8.46289C15.2219 8.85965 15.222 9.99202 14.4287 10.3887L10.3164 12.4443C9.60071 12.8022 8.75879 12.2816 8.75879 11.4814V7.36914Z" fill="white"/>
</svg>
