<svg width="718" height="915" viewBox="0 0 718 915" fill="none" xmlns="http://www.w3.org/2000/svg">
<g clip-path="url(#clip0_274_74)">
<path d="M44.5496 340.979L41.5785 340.923L42.347 338.332L42.046 337.144L41.6895 336.446L39.8989 335.448L39.7009 334.806L40.0891 333.158L38.9878 330.369L37.427 329.458L29.4171 327.667L18.9195 327.398L19.3077 326.597L22.865 323.364L24.1406 321.605L24.5526 319.886L24.2357 318.127L23.2612 316.827L22.0728 316.201L19.6722 311.986L18.5709 311.36L17.2874 311.091L15.6712 309.474L14.356 306.067L11.4959 303.88L10.0936 298.706L8.84969 296.361L6.16388 294.816L6.05297 293.144L7.20969 293.286L7.81181 292.541L7.91481 291.583L7.62959 290.98L4.59518 289.649L4.0802 288.706L0.974487 286.004L1.02995 285.474L1.91729 285.402L2.63034 283.516L2.61449 281.646L6.91654 281.092L7.62959 280.537L7.31268 278.604L5.64098 276.361L31.3027 287.058L65.1329 295.148L82.4916 299.641L120.299 319.902L161.061 337.247L165.308 339.045L164.88 339.735L162.638 340.678L159.651 342.952L155.563 346.945L153.202 348.173L152.259 347.92L150.073 348.173L150.001 348.974L147.26 350.836L144.289 352.254L142.229 354.869L141.603 356.557L140.732 356.961L139.06 355.891L137.975 355.709L134.584 355.78L133.609 356.153L132.706 356.794L132.191 358.023L128.705 362.999L123.317 364.789L122.113 365.78L119.34 366.509L117.867 366.548L117.978 363.529L116.036 363.815L110.958 362.713L103.463 362.04L96.1821 362.587L95.2393 361.755L91.991 361.509L86.9045 364.124L82.9986 365.011L80.598 364.052L78.5936 361.992L76.2485 363.648L76.3039 338.554L76.3752 336.977L77.0487 335.963L77.1516 332.603L76.7793 331.344L78.1658 329.656L78.855 328.024L77.1992 328.309L72.9526 332.009L70.6629 333.451L67.7157 336.858L64.9269 337.817L63.9999 339.362L61.4092 340.781L44.5337 340.995L44.5496 340.979Z" fill="black" fill-opacity="0.16"/>
<path d="M238.078 68.595L239.108 69.7122L240.178 70.1955L241.05 70.2114L242.666 69.6092L243.569 69.7677L243.656 71.1385L245.383 72.8104L246.77 73.3412L248.029 73.0401L249.971 73.1986L252.759 74.5536L253.457 75.4965L252.157 80.2427L251.143 82.3901L255.049 87.7385L257.426 94.5449L257.695 97.7778L258.939 99.3784L259.01 100.02L256.697 102.112L257.212 104.386L258.155 106.644L257.053 110.994L256.237 112.365L256.649 119.489L257.909 122.595L259.652 123.799L260.484 125.083L262.1 131.271L262.013 132.103L260.381 133.989L257.751 133.513L257.553 135.146L264.715 141.469L265.459 141.524L268.264 143.394L270.379 145.756L271.869 148.671L272.63 148.774L274.547 148.172L277.922 149.662L277.296 146.643L278.366 143.371L278.722 140.898L278.191 138.323L279.364 134.076L280.822 132.277L282.652 131.287L285.639 130.273L286.423 128.997L288.713 128.91L292.761 130.241L295.431 133.157L296.746 136.746L299.345 137.071L301.136 136.414L303.148 134.401L306.048 133.616L306.65 133.062L306.682 132.301L305.049 130.289L304.725 129.243L304.883 128.3L306.531 124.528L306.634 122.912L309.011 118.577L312.338 113.918L312.299 112.944L338.737 113.047L339.307 119.996L338.689 122.072L338.943 125.32L339.284 126.295L341.716 127.507L341.969 128.094L341.47 129.084L341.399 132.103L344.013 134.948L344.528 135.217L345.527 134.964L348.157 136.723L348.941 139.337L348.997 140.669L349.425 141.31L356.056 146.698L362.608 150.327L363.511 151.611L365.445 153.172L368.13 154.131L371.521 156.001L374.754 156.928L376.695 157.142L378.58 158.315L378.691 159.186L380.506 161.104L384.364 163.164L385.941 166.27L388.611 167.403L389.823 166.531L391.796 166.032L392.065 166.722L391.883 167.839L394.473 170.224L351.722 262.083L350.605 263.953L348.529 265.569L347.698 266.956L347.658 268.572L348.831 271.9L349.377 272.716L350.906 273.548L353.164 275.783L354.075 277.581L354.289 280.386L355.105 281.203L353.418 282.922L353.133 283.794L353.045 284.879L353.529 286.083L353.141 287.526L351.421 290.125L350.193 291.036L349.591 292.248L349.734 293.46L350.677 295.418L351.334 298.191L349.361 304.229L347.674 311.693L345.947 312.739L277.526 313.198L277.581 312.2L277.066 311.653L275.078 311.249L272.336 312.794L271.568 315.282L270.593 315.552L265.959 313.436L264.984 309.316L264.097 309.03L262.694 309.213L262.037 308.912L260.246 304.237L256.618 302.834L254.716 301.02L253.575 298.286L252.934 297.589L249.86 295.972L234.434 296.059L232.461 299.72L230.005 300.433L230.132 302.105L229.76 302.422L226.21 303.183L224.507 305.457L224.436 306.416L225.719 307.414L225.965 308.056L225.45 309.514L224.293 311.162L221.346 312.889L221.187 315.48L221.528 317.572L215.998 316.914L212.955 317.461L211.236 318.99L208.677 318.848L207.473 318.063L206.815 318.032L204.312 319.83L203.551 321.035L203.924 323.539L200.295 328.055L199.32 328.166L198.346 327.405L197.435 324.172L196.888 324.046L194.258 325.504L192.396 327.231L190.439 327.786L189.338 327.603L187.793 328.317L187.207 329.077L187.024 330.107L185.281 331.24L184.75 331.272L181.447 327.944L180.417 327.413L176.313 327.889L170.648 327.516L170.878 329.362L170.664 330.163L168.445 332.754L165.696 333.586L161.038 337.247L120.275 319.902L82.4679 299.641L65.1092 295.148L31.279 287.058L5.61728 276.361L5.51428 275.434L6.51255 271.258L8.25555 269.254L15.2909 264.293L18.5234 263.953L19.1969 263.525L20.5992 261.29L20.7101 259.817L18.2224 253.398L18.769 251.695L20.4566 248.565L22.2867 246.679L23.6019 244.888L24.204 243.486L24.6319 240.998L24.2199 239.112L25.1785 236.196L25.6222 232.892L26.668 231.822L31.9049 229.493L35.0344 227.734L36.6824 226.244L37.3083 224.239L38.4254 223.708L40.4377 223.55L42.7987 222.219L47.8613 218.312L51.3236 217.694L53.4865 218.106L59.4761 216.363L61.6231 215.262L64.2218 214.747L68.9834 215.294L70.8452 213.019L71.7484 210.943L73.3092 210.072L76.3674 210.357L77.2785 211.126L79.1641 210.785L80.7407 209.723L83.1889 209.898L83.6325 210.658L83.6008 212.346L85.9064 214.192L89.9549 214.303L90.7868 213.733L91.4444 212.615L91.2859 212.061L92.9576 205.024L102.536 151.873L104.192 147.697L102.774 140.605L102.948 140.233L101.086 138.735L98.971 134.805L98.9155 134.108L99.8425 132.119L99.0977 129.575L98.5669 129.005L96.1346 128.165L91.8009 124.805L89.0279 121.549L89.3131 105.091L94.8749 104.719L97.3785 103.047L102.386 101.732L106.22 104.251L107.963 104.41L109.778 103.792L109.08 101.375L109.508 98.9188L107.551 95.9157L106.735 95.1471L105.087 94.2914L102.924 95.0521L98.9314 94.1805L93.8291 94.3072L93.742 80.1477L95.1126 80.2031L96.9982 79.3711L100.254 78.5154L104.319 79.7594L131.525 79.8466L130.868 78.9036L129.735 78.7056L129.188 76.9861L130.543 74.2287L132.587 74.7992L133.459 76.9703L134.703 78.8561L135.645 79.3553L136.834 79.3711L139.139 78.4995L141.912 75.5123L142.372 74.3079L144.17 72.533L147.815 70.5442L149.661 71.2019L151.332 74.8943L153.646 77.7389L154.707 79.6009L155.65 82.1444L155.983 84.363L155.286 89.553L155.571 92.0728L160.142 91.0031L172.027 101.098L173.16 101.502L176.733 101.803L180.021 100.377L182.453 97.9442L185.471 96.2881L188.601 96.1297L189.401 96.5417L190.502 98.0868L190.471 99.4735L188.886 101.906L189.417 103.309L190.249 103.697L192.15 102.667L192.951 101.367L193.283 99.521L194.709 97.865L195.383 97.5322L196.809 97.7857L197.593 97.5322L198.18 96.5892L198.837 93.2851L199.566 92.7542L201.721 92.2392L205.912 89.7115L207.299 90.496L208.63 90.0839L210.919 88.5943L212.377 86.2885L215.396 84.5611L218.295 85.3456L221.67 82.9843L222.455 81.8116L223.081 78.0083L223.041 76.1621L224.142 74.8467L225.616 74.2445L228.104 74.2128L230.021 73.6582L232.968 71.3683L234.339 70.8374L237.595 70.4095L238.023 68.6346L238.078 68.595Z" fill="black" fill-opacity="0.16"/>
<path d="M494.245 143.545L492.898 143.458L491.796 143.941L489.935 144.115L485.941 143.141L483.866 141.667L483.248 139.52L480.578 137.531L480.419 135.669L480.72 134.678L480.277 132.42L479.801 131.747L478.447 131.477L477.86 130.13L477.971 126.652L473.78 121.961L472.663 122.476L471.49 122.207L469.343 117.231L469.526 114.972L468.686 112.381L467.798 111.581L466.84 109.418L466.57 106.399L467.188 101.906L466.943 101.431L463.267 100.385L460.375 97.152L459.289 93.103L459.559 92.0729L460.533 91.7401L459.836 90.0524L458.862 90.092L454.797 86.2886L453.45 86.4867L452.904 87.0889L451.002 87.287L449.798 86.8988L448.657 85.4963L447.025 84.2919L445.322 84.1176L444.624 82.2872L443.666 81.1462L440.909 79.6486L439.063 78.9513L434.214 78.4205L432.669 78.8325L430.997 78.8008L430.554 78.0322L430.213 75.972L430.569 69.4826L431.457 67.6205L430.926 64.3322L430.039 63.5161L430.538 63.215L431.956 63.6428L431.94 64.7997L431.528 65.0532L432.011 66.4399L434.111 66.3527L435.283 66.6855L435.783 67.9692L436.987 68.9834L440.203 70.1006L444.91 71.1703L448.855 68.6268L449.354 67.5413L451.826 65.8694L453.015 65.4574L454.005 66.8044L457.879 68.1514L459.424 67.9771L461.88 66.535L462.054 65.9328L462.514 65.9724L464.598 67.8344L464.312 69.0785L467.703 68.8328L468.432 69.546L469.787 69.7916L470.674 69.7757L471.974 69.0864L474.358 66.9391L476.902 65.3623L479.405 62.0739L479.936 60.6477L479.651 59.8791L484.127 50.5847L484.286 47.9857L485.87 46.1236L486.916 45.8542L492.066 37.574L492.391 35.9259L493.595 34.2065L496.154 31.9878L497.057 29.6107L500.076 27.9785L500.749 26.6631L502.239 25.8312L503.039 27.9151L504.298 29.8564L501.914 22.9945L501.811 21.1483L502.064 20.6729L506.881 24.1355L508.513 25.8628L509.813 27.6061L510.557 29.3096L510.597 31.5679L511.223 32.0116L511.682 31.3222L512.229 31.1796L512.53 31.7501L512.831 43.0334L513.774 48.5641L517.648 57.2168L521.451 69.9976L526.197 77.1447L527.639 77.6439L532.313 77.533L536.291 78.88L538.136 80.0924L539.238 83.8799L539.008 88.642L537.162 90.0128L534.69 90.6308L534.143 91.1062L536.702 90.8923L538.192 90.2901L538.596 90.615L538.77 91.4549L538.525 92.5008L531.331 98.3088L529.659 101.312L526.585 103.325L523.812 108.641L519.653 113.649L518.654 114.307L517.308 114.18L515.232 114.925L512.261 119.188L510.344 119.291L509.274 120.574L507.174 122.975L505.788 126.153L504.188 128.823L502.983 129.75L498.681 134.686L498.166 138.117L498.412 140.692L495.623 143.284L494.221 143.458L494.245 143.545ZM527.647 76.3445L527.005 75.869L525.428 73.2067L525.531 71.9468L525.864 71.3605L528.241 70.7187L528.859 71.2733L530.047 74.522L528.629 76.0988L527.655 76.3445H527.647ZM531.204 101.526L530.634 101.169L530.523 100.155L532.107 98.5782L533.367 98.3643L535.158 98.705L535.815 98.5465L536.441 97.6353L536.512 98.4752L535.126 100.535L533.708 101.249L531.204 101.518V101.526ZM536.124 97.4214L535.007 97.0965V96.2962L536.037 94.8066L537.828 94.6639L538.081 95.1631L537.938 95.8921L536.124 97.4214ZM525.848 71.0831L524.763 70.37L525.135 69.1815L526.395 68.9358L527.623 69.3954L527.639 70.4413L525.848 71.0831Z" fill="black" fill-opacity="0.16"/>
<path d="M755.22 523.389L754.705 522.201L755.679 520.267L755.663 519.507L754.903 518.017L749 513.659L748.786 512.93L749.103 510.767L748.287 509.008L747.36 509.349L747.075 509.99L746.592 510.244L746.275 509.887L747.035 503.596L748.208 498.873L749.381 497.614L752.914 497.954L754.372 496.94V496.338L753.572 494.88L753.801 491.092L760.892 485.055L762.992 480.649L762.39 478.977L761.273 477.519L759.997 477.432L758.951 476.885L754.903 473.351L751.868 473.383L748.739 472.527L745.491 470.982L741.585 470.182L738.756 469.984L736.871 471.402L734.771 472.115L731.039 471.473L730.223 471.775L729.597 466.109L720.272 457.243L719.726 456.981L713.451 458.74L711.264 456.965L710.535 457.266L709.204 456.949L705.576 455.206L702.47 452.892L701.068 453.146L694.848 447.956L693.272 447.187L689.366 446.118L686.838 446.474L684.153 447.758L682.996 449.359L682.077 449.612L674.455 447.512L673.584 446.815L673.211 444.668L673.409 443.392L675.255 439.478L674.027 438.82L670.771 438.075L667.658 438.02L665.938 437.307L663.379 437.196L657.905 439.454L651.812 443.788L650.893 445.373L646.076 448.043L643.184 448.614L641.829 450.301L639.239 452.52L637.195 453.265L635.768 453.051L633.122 456.743L631.633 457.845L628.59 457.298L627.56 457.48L626.57 458.907L624.653 460.222L624.082 459.881L626.126 454.976L625.398 451.53L627.513 448.709L627.869 447.607L627.537 445.793L626.578 443.337L626.721 442.378L627.735 440.349L627.663 439.692L623.076 435.944L620.66 430.999L619.772 425.968L619.844 423.749L621.563 418.274L623.837 416.8L624.17 416.254L624.257 414.906L621.927 413.702L621.769 413.227L622.458 409.621L624.502 408.108L624.471 407.577L620.581 404.059L620.525 402.728L622.466 399.321L622.411 397.791L622.165 397.189L620.081 396.492L618.735 395.565L618.235 393.766L618.323 389.59L618.592 388.378L621.381 385.993L623.013 385.391L624.383 384.361L623.971 383.457L623.14 382.713L621.824 382.301L620.351 382.554L619.852 382.079L619.725 381.366L620.327 379.995L623.243 378.822L624.043 378.18L623.987 377.095L621.302 375.692L616.183 374.734L613.521 371.929L613.197 370.613L613.91 368.957L615.352 367.911L617.522 362.935L618.806 362.064L620.248 361.675L620.747 361.129L618.901 358.553L619.17 358.023L623.758 354.275L629.216 351.383L630.017 350.709L630.333 349.307L631.324 348.379L634.659 348.348L636.719 350.265L637.662 351.755L638.423 354.916L640.942 358.474L646.916 361.137L649.491 360.392L652.509 360.645L652.985 360.344L654.054 358.268L655.686 357.737L656.645 356.493L658.317 355.218L661.478 354.148L663.379 354.394L665.495 355.154L667.428 354.552L671.674 351.089L675.889 343.871L676.919 342.643L677.26 341.327L677.688 337.667L677.513 336.011L674.313 329.68L674.384 328.348L679.019 325.987L681.808 325.956L683.955 326.613L684.541 327.944L685 328.198L688.035 327.58L690.023 326.811L691.925 327.358L694.373 328.776L694.191 329.703L694.46 330.115L695.633 330.52L699.919 330.361L702.018 329.45L704.451 329.307L705.623 327.564L707.786 325.646L711.692 325.163L712.793 324.648L713.95 323.246L717.056 323.261L717.943 324.165L718.387 324.236L721.049 321.645L720.906 318.214L723.751 317.667L724.883 317.921L726.381 316.978L728.528 313.674L729.186 312.026L730.461 312.596L732.117 312.208L735.262 312.62L739.295 314.609L739.921 315.338L739.834 319.244L740.864 322.017L744.025 323.317L744.413 326.177L743.098 328.578L745.712 329.466L747.083 329.149L748.256 327.833L752.36 326.574L753.461 321.455L754.174 320.211L755.243 319.981L756.361 320.742L757.264 320.813L760.678 319.355L762.255 317.58L762.501 316.74L762.144 314.799L762.556 314.442L765.757 313.801L766.858 310.869L769.219 310.243L772.84 308.159L773.68 308.016L775.811 308.817L776.999 310.877L778.94 312.034L782.315 313.151L786.594 313.721L788.852 315.37L789.62 317.731L790.175 318.119L790.793 317.905L791.205 315.401L791.823 314.775L793.249 314.759L793.891 315.219L793.922 316.122L793.035 317.382L793.677 318.571L794.39 319.102L797.392 320.33L797.424 321.677L799.167 326.035L799.936 328.039L801.393 328.451L802.035 328.325L804.079 329.458L804.364 330.488L803.406 332.144L803.707 335.202L805.537 338.776L808.381 341.565L809.451 343.213L809.34 347.674L808.397 349.988L808.27 351.248L809.356 355.178L808.928 356.01L807.938 356.794L804.293 358.221L802.677 357.151L800.229 357.135L799.769 357.563L798.929 359.821L798.961 360.923L800.316 363.213L801.893 364.155L802.637 366.287L804.681 368.45L804.895 369.005L804.713 371.033L804.23 371.588L804.404 372.19L805.244 372.935L808.001 374.25L808.69 375.264L809.459 375.748L811.677 376.659L815.813 375.399L816.732 375.367L817.247 375.954L811.416 388.584L805.941 396.009L804.467 399.336L797.274 407.545L793.772 409.344L792.528 409.328L792.956 407.284L793.487 407.07L793.685 405.493L793.043 402.736L790.373 402.379L789.755 400.517L788.78 399.447L788.25 400.303L787.592 403.631L786.879 404.875L786.095 405.422L785.294 405.01L784.597 402.522L784.756 402.062L785.199 401.88L785.16 401.325L783.916 403.172L785.247 405.588L785.904 405.921L786.435 405.707L788.083 406.08L787.426 408.671L785.698 410.319L785.342 412.918L783.551 414.304L783.052 415.263L782.767 416.467L783.021 417.68L781.087 417.125L780.786 417.68L780.271 421.285L780.786 420.255L781.856 420.556L782.197 421.325L781.872 421.911L781.959 422.798L782.387 423.226L782.862 424.653L781.373 428.242L782.189 433.163L781.404 433.86L780.588 433.543L780.39 435.159L781.23 435.817L782.957 433.361L782.284 430.199L783.456 429.328L783.813 430.096L783.726 432.616L782.355 436.348L781.293 444.113L780.564 446.704L780.85 450.238L781.967 454.311L782.236 460.8L783.48 469.968L784.898 474.857L781.737 484.381L779.804 493.889L779.13 495.332L778.901 499.42L777.387 504.737L777.261 508.065L777.815 514.388L779.091 516.836L775.89 521.099L773.299 522.058L771.952 522.977L768.062 528.54L767.246 531.456L755.679 524.102L755.235 523.342L755.22 523.389ZM787.077 411.848L786.752 410.128L787.814 409.542L789.327 408.052L789.557 407.141L789.026 406.095L790.111 406.293L791.284 407.791L791.213 408.552L787.077 411.84V411.848ZM783.456 421.65L782.553 421.61L782.569 420.651L782.941 420.136L781.8 419.819L781.198 419.249L781.381 417.719L784.05 417.505L784.28 417.791L784.439 419.407L783.448 421.65H783.456Z" fill="black" fill-opacity="0.16"/>
<path d="M596.804 478.399L575.801 478.367L575.056 473.708L576.372 471.093L576.918 465.76L594.008 465.776L596.622 468.605L596.709 471.767L595.869 473.47L595.568 476.957L596.812 478.399H596.804Z" fill="black" fill-opacity="0.16"/>
<path d="M718.228 589.227L717.816 589.029L718.442 585.685L719.258 583.823L718.418 579.362L718.648 578.76L721.104 575.812L728.464 575.852L729.249 575.392L730.635 570.757L732.22 568.942L733.48 565.67L733.82 563.213L734.193 562.588L735.967 561.359L738.415 558.372L739.184 554.125L738.772 550.647L736.958 546.629L735.381 544.815L734.636 544.688L733.995 545.1L732.909 544.696L732.212 543.682L732.83 542.897L734.945 542.77L736.086 543.27L737.473 543.309L738.827 542.969L739.287 542.366L739.041 539.91L737.172 539.411L736.87 538.824L737.298 536.622L737.338 533.872L736.593 532.929L734.692 531.971L734.264 530.972L735.936 528.215L739.041 526.345L739.485 526.313L740.982 527.375L742.599 527.533L742.63 526.376L740.246 523.128L742.163 523.31L745.276 522.898L746.481 522.026L748.026 521.567L750.284 521.456L753.912 522.613L755.212 523.397L755.639 524.158L767.222 531.511L765.891 536.305L765.448 540.393L765.622 545.528L766.652 554.323L766.208 557.857L764.077 562.405L760.147 564.394L759.363 565.25L756.978 570.012L755.576 575.448L754.475 577.547L753.286 576.573L752.027 576.391L751.615 578.221L753.548 578.966L750.775 585.027L745.839 590.518L745.498 590.13L742.836 591.073L741.695 592.832L741.608 594.821L741.006 596.612L738.732 599.504L738.32 601.12L736.007 599.607L731.729 600.138L725.525 598.696L721.952 597.079L720.993 590.344L718.236 589.259V589.227H718.228Z" fill="black" fill-opacity="0.16"/>
<path d="M596.804 478.399L595.561 476.956L595.862 473.47L596.701 471.766L596.614 468.605L594 465.776L576.91 465.76L576.364 471.093L575.049 473.708L575.793 478.367L596.796 478.399L596.036 480.57L596.48 482.812L595.505 485.086L594.016 486.877L593.429 488.977L594.641 490.704L595.854 491.187L597.882 492.661L600.243 499.182V500.038L596.923 503.913L592.288 508.215L591.67 511.274L593.231 512.859L594.515 512.185L596.773 513.001L597.446 513.873L597.7 515.299L597.454 516.313L596.408 517.597L595.679 520.299L597.383 525.243L592.962 528.191L591.306 528.476L590.078 529.76L589.389 531.36L582.393 535.275L581.395 534.173L575.175 531.511L574.391 532.2L573.559 532.327L571.055 532.343L568.94 531.939L563.418 532.169L560.542 530.893L554.64 534.664L550.48 538.84H550.005L548.135 536.812L545.964 536.384L541.401 538.729L536.092 537.842L532.543 539.213L529.358 539.981L527.346 542.984L525.619 546.502L525.706 547.929L524.501 549.791L523.329 550.195L522.125 549.965L521.483 550.163L520.136 551.225L517.791 554.228L516.975 556.946L517.775 557.817L517.759 558.301L517.244 558.634L516.016 557.976L515.675 557.334L511.873 554.133L507.372 553.261L505.059 551.043L502.342 550.425L500.21 550.369L495.417 548.452L494.443 547.239L490.053 545.005L489.095 544.133L487.035 543.119L485.403 542.873L481.544 540.472L477.567 540.702L472.132 539.704L471.95 539.229L472.322 538.024L473.138 536.352L475.008 533.832L474.897 533.23L471.68 531.947L470.048 532.905L469.106 532.636L468.702 532.05L468.377 530.465L468.749 526.772L468.48 524.245L467.125 521.099L466.871 516.194L464.859 513.065L464.629 512.05L465.2 507.177L468.844 501.67L469.391 497.51L470.389 496.409L473.281 495.205L476.022 492.677L477.813 489.785L478.288 486.996L479.001 485.554L480.831 484.064L482.004 482.02L482.115 479.817L484.618 478.43L486.623 474.682L490.41 474.5L494.3 473.272L494.759 472.868L497.588 466.878L498.602 465.507L499.521 459.643L500.068 458.582L502.817 455.808L505.178 454.366L506.707 453.994L508.466 454.968L510.193 453.922L512.182 451.878L513.386 447.686L515.057 443.582L515.042 442.441L514.352 440.809L515.184 436.894L517.474 432.473L517.3 425.064L519.027 423.947L520.5 420.183L523.361 415.651L523.915 414.122L523.685 410.231L524.185 408.948L525.571 407.72L525.959 406.103L525.848 405.2L526.332 404.558L526.617 401.872L527.56 400.113L530.15 397.126L530.951 396.698L530.911 399.146L529.168 401.832L528.423 405.176L531.854 405.747L534.999 407.22L540.616 407.791L545.037 410.239L550.86 412.284L551.764 411.951L554.093 403.457L556.192 400.042L557.88 398.655L559.528 400.525L561.017 403.211L562.602 408.52L563.473 412.949L565.105 413.02L566.175 411.951L566.603 410.525L567.403 409.756L571.349 410.239L577.829 409.479L578.146 410.54L577.346 412.775L581.822 414.875L586.616 415.849L587.606 415.738L588.335 411.016L589.119 411.055L591.282 414.803L591.94 415.144L594.483 413.86L598.088 410.889L604.569 409.463H606.787L610.447 407.886L612.935 405.968L620.596 403.94L624.486 407.458L624.518 408.005L622.474 409.518L621.785 413.124L621.927 413.599L624.257 414.803L624.17 416.15L623.837 416.697L621.563 418.171L619.86 423.646L619.788 425.865L620.676 430.896L623.108 435.841L627.695 439.589L627.766 440.262L626.736 442.29L626.594 443.249L627.553 445.706L627.877 447.536L627.521 448.637L625.405 451.458L623.979 452.9L619.36 452.417L618.077 449.897L614.615 447.782L612.943 449.913L613.775 455.301L612.959 456.07L612.388 456.252L608.411 454.62L606.74 454.952L606.209 455.357L605.179 459.905L606.209 460.047L606.906 461.703L606.09 463.05L605.044 464.049L605.099 466.767L605.702 467.638L606.462 467.908L607.453 474.001L606.692 474.762L601.891 476.045L598.619 478.208L596.804 478.383V478.399Z" fill="black" fill-opacity="0.16"/>
<path d="M656.661 185.326L656.605 185.802L653.69 188.876L653.072 189.122L653.016 191.182L655.837 188.749L656.811 187.022L659.846 184.764L661.121 183.131L662.595 174.083L664.243 173.084L665.827 172.91L668.212 171.595L669.139 171.412L669.797 171.587L669.908 173.916L669.622 174.558L667.594 177.228L663.007 179.732L662.967 180.762L664.013 180.937L664.655 179.78L666.303 179.336L666.62 180.525L665.78 181.254L666.136 181.681L672.158 174.574L673.386 175.049L677.078 173.718L682.853 174.336L682.196 170.889L683.067 170.565L686.529 170.676L689.073 171.222L692.836 172.72L694.325 172.878L697.399 174.851L699.404 174.891L701.202 176.753L703.904 178.639L707.477 179.471L709.133 179.201L709.933 180.287L710.416 180.358L712.69 180.231L716.208 181.174L716.58 179.891L715.622 179.217L718.007 178.67L718.823 178.829L718.696 179.431L718.038 181.475L718.371 182.506L719.274 183.274L718.727 185.461L716.168 188.71L710.266 194.383L705.52 195.041L704.379 194.811L700.204 199.676L700.26 202.251L699 204.866L696.298 207.513L695.126 210.341L694.214 210.587L693.113 212.085L693.628 214.834L695.387 216.023L695.934 217.853L695.53 219.937L693.898 224.041L696.156 228.059L696.94 232.322L696.781 235.8L696.48 236.584L690.618 242.908L690.372 246.457L690.546 249.476L691.275 252.765L693.818 255.68L696.124 256.98L696.369 257.693L696.552 258.897L695.997 262.043L695.585 262.669L695.411 264.396L694.698 266.48L692.971 268.35L689.699 268.762L688.772 268.358L687.583 268.414L684.105 269.642L681.934 269.8L678.361 267.201L676.919 266.9L674.835 267.17L673.394 268.026L671.793 268.398L671.46 267.97L670.256 268.311L669.543 268.628L666.826 271.361L666.841 272.019L665.938 273.263L663.062 276.124L659.719 277.423L655.615 281.084L653.713 281.844L652.216 281.9L649.784 284.087L648.239 284.602L644.507 285.061L640.617 286.147L637.575 288.936L636.172 293.183L635.618 297.43L634.715 300.75L632.639 304.665L632.211 304.981L631.728 306.154L631.546 308.325L629.826 311.875L627.394 313.88L626.348 316.74L627.362 319.513L628.036 324.062L630.508 328.435L630.452 329.18L629.367 331.185L629.185 340.281L627.537 343.784L627.164 345.297L627.093 348.039L625.263 347.096L624.391 345.923L623.219 345.281L621.801 344.869L619.257 345.154L618.243 344.901L616.31 342.04L614.892 337.952L611.85 335.638L611.652 333.277L613.997 330.686L613.886 329.925L608.34 327.136L607.453 325.638L607.365 323.261L606.296 320.987L604.949 319.997L601.978 319.593L601.693 318.99L602.065 317.976L605.828 314.347L605.298 312.477L606.343 308.642L607.334 306.598L608.15 305.813L610.067 305.045L614.916 304.546L614.361 302.612L615.28 297.961L615.169 295.441L612.594 293.714L606.486 295.061L603.412 296.979L600.164 292.66L598.864 291.448L594.578 285.513L593.318 285.616L592.114 283.556L592.986 281.852L592.827 280.592L592.471 280.109L590.514 279.768L589.912 280.157L587.154 278.255L587.408 277.241L589.927 276.298L592.431 273.382L592.788 271.108L592.383 269.682L592.827 266.306L595.355 257.495L595.37 256.877L594.396 255.245L594.063 253.7L594.364 248.383L593.453 246.235L592.78 241.244L591.575 239.77L586.711 237.71L584.968 237.678L584.564 237.218L584.453 235.745L583.613 234.754L581.125 234.342L579.755 235.087L577.75 234.96L573.773 232.797L572.545 232.71L569.74 233.47L565.993 236.117L565.232 237.028L564.535 236.917L585.57 220L588.929 220.325L590.601 219.01L592.819 215.904L593.437 214.256L595.656 212.584L596.543 208.463L598.143 207.806L601.629 204.486L602.303 202.758L602.715 200.041L605.004 193.337L607.809 191.134L609.924 188.615L611.113 186.539L611.77 184.708L611.517 182.109L612.65 180.952L611.16 178.694L616.421 174.273L616.239 171.927L616.952 168.52L619.44 166.278L619.955 165.264L621.238 160.945L621.349 158.639L620.731 157.879L619.313 158.109L618.925 157.411L618.996 156.524L620.628 156.31L621.444 155.248L622.458 148.973L622.228 147L622.902 145.526L624.003 144.884H624.906L625.247 144.543L625.16 143.775L625.643 142.705L626.475 141.944L628.392 143.347L629.034 145.977L630.737 146.152L631.839 144.211L632.71 148.402L634.128 148.458L634.54 147.76L634.643 146.413L635.856 146.358L638.272 147.118L638.985 148.109L636.941 150.542L637.9 151.54L637.931 152.324L639.658 149.408L640.356 147.206H640.997L641.568 148.664V149.496L640.324 150.811L639.936 152.229L640.047 156.104L640.419 156.579L641.092 156.754L641.924 156.556L643.295 155.224L642.622 153.798L642.82 152.942L644.705 150.898L646.203 150.542L649.245 151.381L651.392 149.797L651.463 151.112L650.948 151.413L649.332 153.6L650.172 154.432L650.315 153.901L652.105 153.045L652.937 154.178L652.739 155.906L655.068 158.41L656.296 157.784L658.554 158.742L659.655 162.173L659.497 163.528L656.368 167.435L655.821 168.71L655.964 169.653L656.819 168.18L659.323 165.779L660.511 165.739L661.755 166.896L662.5 169.598L662.112 171.357L660.725 171.626L659.251 172.926L657.596 175.057L657.699 176.159L656.043 179.518L655.155 184.55L655.456 185.033L656.7 185.358L656.661 185.326ZM657.405 185.968L657.318 184.835L658.079 182.648L657.493 181.119L657.675 180.176L658.974 178.401L659.758 178.132L659.83 181.491L659.513 183.409L658.372 184.265L657.398 185.968H657.405ZM648.397 149.131L647.771 148.473L647.66 147.618L648.801 146.017L650.006 145.977L650.98 146.58L651.123 147.063L650.853 147.578L648.405 149.139L648.397 149.131ZM653.397 155.113L652.985 154.686L653.072 153.925L654.585 152.649L655.274 152.752L655.987 153.965L655.789 154.836L655.219 154.59L653.404 155.106H653.397V155.113ZM633.154 148.236L632.853 148.164L634.208 143.046L634.635 143.173L634.675 143.505L634.089 147.879L633.146 148.236H633.154Z" fill="black" fill-opacity="0.16"/>
<path d="M755.22 523.389L753.92 522.605L750.292 521.448L748.034 521.559L746.489 522.018L745.284 522.89L742.171 523.302L740.253 523.12L742.638 526.368L742.607 527.525L740.99 527.367L739.493 526.305L739.049 526.337L735.944 528.207L734.272 530.964L734.7 531.962L736.601 532.921L737.346 533.864L737.306 536.614L736.878 538.816L737.179 539.403L739.049 539.902L739.295 542.358L738.835 542.96L737.481 543.301L736.094 543.262L734.953 542.762L732.838 542.889L732.22 543.674L732.917 544.688L734.002 545.092L734.644 544.68L735.389 544.807L736.966 546.621L738.78 550.638L739.192 554.117L738.423 558.364L735.975 561.351L734.201 562.579L733.828 563.205L733.487 565.662L732.228 568.934L730.643 570.749L729.257 575.384L728.472 575.844L721.112 575.804L718.656 578.752L718.426 579.354L719.266 583.815L718.45 585.677L717.824 589.021L718.236 589.219L714.615 592.578L712.841 592.967L712.041 593.68L713.102 594.678L709.727 603.331L707.01 608.64L706.883 609.709L708.943 609.892L709.355 610.763L709.054 611.508L705.433 612.91L691.838 619.392L689.881 619.677L689.912 619.02L689.215 618.774L685.594 618.386L684.778 618.473L682.465 619.82L680.674 620.05L676.095 620.161L675.58 619.701L674.851 619.812L668.988 622.355L667.491 623.457L665.043 624.558L664.33 624.154L660.63 624.4L656.47 626.317L653.008 627.379L652.034 628.076L650.243 629.122L647.098 629.439L644.341 630.897L642.582 632.672L640.023 633.631L636.616 633.987L633.273 633.876L633.257 633.179L633.756 632.482L633.629 631.983L631.926 632.458L631.672 635.746L632.013 636.079L631.942 637.284L630.872 638.686L629.01 639.146L628.194 638.528L623.037 639.954L622.767 639.193L619.891 639.534L618.291 639.177L615.391 634.447L617.134 633.433L616.389 630.984L613.814 629.796L611.255 628.037L610.241 625.731L611.002 623.496L611.271 618.56L610.899 614.353L613.561 610.462L614.559 607.348L614.63 605.534L614.298 605.003L609.005 603.117L607.579 603.188L607.175 603.703L606.058 604.147L603.753 604.218L603.792 603.006L602.604 600.161L600.742 597.602L600.211 594.44L599.767 593.553L598.634 592.491L598.904 589.718L601.075 586.818L601.162 586.018L600.591 583.799L597.906 582.072L597.074 581.2L597.486 577.809L598.302 576.367L598.016 574.877L593.342 570.083L591.48 570.495L590.268 571.414L587.907 570.297L584.5 570.456L584.057 571.327L584.342 571.985L583.716 573.403L579.739 574.378L578.154 573.76L575.991 571.684L574.549 573.474L562.855 574.449L562.198 575.138L561.508 576.842L561.897 580.471L561.31 581.097L559.607 580.352L559.591 576.374L559.235 575.004L558.72 574.449L557.919 574.378L557.547 574.647L556.961 576.264L556.002 577.611L555.234 578.07L554.346 578.038L552.619 575.035L552.144 573.007L552.342 571.707L549.941 570.574L546.828 568.546L543.983 569.386L541.67 569.069L539.285 569.568L533.153 568.197L529.509 568.086L527.037 565.868L525.967 565.67L523.82 566.541L521.776 568.958L519.027 569.489L515.953 571.074L514.21 572.69L514.653 568.942L513.814 564.354L515.232 558.38L516.064 558.023L517.292 558.681L517.807 558.348L517.823 557.865L517.022 556.993L517.838 554.275L520.183 551.272L521.53 550.211L522.172 550.013L523.376 550.242L524.549 549.838L525.753 547.976L525.666 546.55L527.393 543.032L529.406 540.029L532.59 539.26L536.14 537.889L541.448 538.777L546.012 536.431L548.182 536.859L550.052 538.888H550.528L554.687 534.712L560.589 530.94L563.465 532.216L568.988 531.986L571.103 532.39L573.607 532.374L574.438 532.248L575.223 531.558L581.442 534.221L582.44 535.322L589.436 531.408L590.125 529.807L591.353 528.524L593.009 528.238L597.43 525.291L595.727 520.346L596.456 517.644L597.501 516.361L597.747 515.347L597.494 513.92L596.82 513.049L594.562 512.233L593.279 512.906L591.718 511.321L592.336 508.263L596.971 503.96L600.29 500.086V499.23L597.929 492.709L595.901 491.235L594.689 490.751L593.477 489.024L594.063 486.924L595.553 485.134L596.527 482.86L596.083 480.617L596.844 478.446L598.658 478.272L601.93 476.109L606.731 474.825L607.492 474.064L606.502 467.971L605.741 467.702L605.139 466.83L605.084 464.112L606.129 463.114L606.945 461.767L606.248 460.111L605.218 459.968L606.248 455.42L606.779 455.016L608.451 454.683L612.428 456.315L612.998 456.133L613.814 455.364L612.983 449.976L614.654 447.845L618.116 449.96L619.4 452.48L624.019 452.964L625.445 451.521L626.174 454.968L624.13 459.889L624.7 460.222L626.618 458.922L627.616 457.496L628.646 457.314L631.688 457.86L633.178 456.759L635.824 453.082L637.242 453.296L639.286 452.536L641.877 450.317L643.232 448.645L646.123 448.059L650.94 445.396L651.852 443.812L657.96 439.478L663.419 437.219L665.994 437.346L667.713 438.059L670.827 438.099L674.083 438.859L675.295 439.517L673.449 443.439L673.235 444.715L673.607 446.846L674.479 447.56L682.101 449.651L683.012 449.406L684.168 447.805L686.854 446.53L689.382 446.157L693.287 447.227L694.864 447.995L701.083 453.201L702.486 452.948L705.591 455.261L709.212 457.005L710.543 457.322L711.272 457.02L713.459 458.795L719.734 457.036L720.28 457.29L729.605 466.156L730.231 471.822L731.047 471.521L734.779 472.163L736.878 471.449L738.764 470.031L741.608 470.245L745.514 471.045L748.747 472.59L751.876 473.462L754.911 473.422L758.959 476.956L760.005 477.503L761.28 477.606L762.398 479.064L763 480.736L760.9 485.142L753.809 491.179L753.595 494.967L754.396 496.425V497.027L752.938 498.041L749.388 497.701L748.216 498.96L747.043 503.683L746.283 509.974L746.6 510.331L747.099 510.061L747.384 509.42L748.295 509.079L749.127 510.838L748.81 513.001L749.024 513.73L754.942 518.104L755.703 519.594L755.719 520.354L754.744 522.288L755.243 523.476L755.22 523.389Z" fill="black" fill-opacity="0.16"/>
<path d="M514.218 572.698L513.647 576.216L513.243 576.787L511.096 577.904L509.211 577.959L508.537 578.276L506.794 579.75L503.95 583.585L502.904 584.512L501.462 584.94L500.575 587.341L500.345 591.533L496.645 596.738L495.274 597.483L494.942 598.03L495.385 600.787L495.274 602.142L493.547 605.486L490.687 608.719L491.186 609.931L490.782 611.659L488.722 613.132L488.152 614.86L485.68 617.277L483.882 620.763L481.093 623.433L470.286 629.915L468.488 631.547L467.426 633.75L466.222 635.295L458.489 638.544L456.905 639.716L455.574 643.044L455.605 644.692L453.53 649.779L452.571 650.754L450.194 652.196L448.609 652.656L448.134 653.155L445.892 664.478L445.377 665.65L441.97 667.885L438.326 664.557L433.453 661.855L427.749 664.676L426.774 665.746L424.398 666.443L420.706 667.061L417.33 666.403L415.889 665.476L415.215 659.367L414.756 658.369L413.472 657.014L413.139 653.48L413.868 651.562L412.949 650.429L412.822 649.803V645.699L411.547 642.878L410.691 638.964L410.62 637.933L411.46 635.992L411.491 633.686L409.249 632.125L408.703 630.984L408.473 627.894L406.112 625.295L403.006 624.923L400.843 625.367L398.229 624.955L394.711 622.15L393.911 620.018L391.708 620.494L388.603 624.408L387.177 623.552L384.72 624.709L383.176 624.939L380.688 623.948L377.028 623.251L372.084 623.584L366.847 622.57L366.158 621.27L363.313 621.088L362.038 621.833L358.465 620.573L359.764 610.177L359.146 606.77L360.002 604.741L361.404 602.649L362.26 594.029L361.317 590.701L361.245 588.228L360.16 586.858L359.542 586.731L358.845 587.658L357.934 582.999L356.801 580.329L355.074 577.436L354.574 574.822L360.334 571.533L361.42 570.273L355.414 564.751L363.107 548.42L364.708 548.333L364.304 545.29L363.242 545.108L367.861 530.338L368.804 528.682L364.383 520.315L364.422 517.581L365.421 517.866L366.878 519.443L369.953 521.614L377.986 518.793L380.918 515.933L383.809 511.718L383.936 510.046L385.941 507.97L389.641 508.009L391.875 507.692L392.976 508.176L395.353 507.447L397.286 505.656L400.178 504.959L401.992 505.244L403.077 506.892L407.071 508.683L410.818 509.356L411.745 509.856L412.133 511.084L413.25 512.542L417.584 514.198L419.383 515.782L421.157 516.599L427.622 515.695L429.421 514.554L430.118 513.342L432.162 512.47L435.648 512.573L437.922 514.063L438.35 516.02L438.69 516.377L440.108 516.432L443.151 515.172L444.593 515.259L452.626 506.662L454.544 506.48L452.785 515.933L450.21 516.931L447.833 520.98L447.564 521.638L447.778 522.399L449.639 522.557L452.127 524.372L458.735 524.76L459.551 523.944L463.354 523.833L464.598 523.944L466.269 524.76L468.488 524.316L468.757 526.844L468.385 530.536L468.709 532.121L469.114 532.707L470.056 532.977L471.688 532.018L474.905 533.302L475.016 533.904L473.146 536.424L472.33 538.095L471.958 539.3L472.14 539.775L477.575 540.774L481.552 540.544L485.411 542.945L487.043 543.19L489.103 544.205L490.061 545.076L494.451 547.311L495.425 548.523L500.218 550.44L502.349 550.496L505.067 551.114L507.38 553.333L511.881 554.204L515.683 557.405L516.024 558.047L515.192 558.404L513.774 564.378L514.614 568.966L514.17 572.714L514.218 572.698Z" fill="black" fill-opacity="0.16"/>
<path d="M296.905 424.32L299.004 422.275L304.883 418.599L305.628 415.097L307.672 409.693L309.003 408.147L311.348 407.387L311.966 406.8L312.798 405.596L313.543 402.379L315.919 399.503L316.72 396.302L316.823 393.853L315.991 391.722L316.046 388.79L313.859 384.012L312.576 384.052L311.744 383.323L311.126 378.672L311.324 376.786L313.265 375.241L315.27 372.737L315.515 371.667L313.503 366.532L311.974 365.914L310.389 365.756L305.382 365.883L303.639 364.298L303.98 363.498L279.443 363.426L280.727 350.558L278.58 346.628L278.191 344.109L278.231 342.968L279.657 337.936L279.11 335.179L280.457 332.794L279.269 329.545L279.055 327.556L278.683 326.684L277.565 326.011L277.478 325.512L279.324 318.372L280.41 316.344L279.554 314.569L277.55 313.182L345.97 312.723L347.698 311.677L349.385 304.213L351.358 298.175L350.7 295.402L349.757 293.445L349.615 292.232L350.217 291.02L351.445 290.109L353.164 287.51L353.552 286.068L353.069 284.863L353.156 283.778L353.442 282.906L355.129 281.187L356.801 282.732L360.303 288.54L360.873 291.06L362.83 296.725L364.716 299.482L365.817 301.796L365.492 305.283L366.181 308.714L367.227 311.859L369.414 313.444L373.7 317.374L378.533 319.807L378.866 321.154L378.81 322.73L379.135 323.428L380.49 323.998L381.662 323.753L383.992 324.394L384.76 325.425L385.045 326.97L385.544 327.429L387.501 326.787L392.778 328.919L441.447 332.382L531.481 337.358L530.554 338.816L529.754 341.517L528.178 343.308L527.552 347.801L526.934 349.013L526.403 349.402L523.63 356.969L522.861 361.216L522.806 365.431L520.12 373.997L520.207 375.225L522.196 377.142L521.966 378.386L520.794 379.662L520.722 380.375L522.299 383.592L521.626 388.323L521.641 390.565L522.386 391.397L523.012 395.755L521.95 399.701L523.353 404.479L524.723 405.208L525.864 405.24L525.975 406.143L525.587 407.759L524.2 408.987L523.701 410.271L523.931 414.162L523.376 415.691L520.516 420.223L519.043 423.987L517.316 425.104L517.49 432.513L515.2 436.934L514.368 440.848L515.058 442.481L515.073 443.622L513.402 447.726L512.197 451.918L510.209 453.962L508.482 455.008L506.723 454.033L505.194 454.406L502.833 455.848L500.084 458.621L499.537 459.683L498.618 465.546L497.604 466.917L494.775 472.908L494.316 473.312L490.426 474.54L486.639 474.722L484.634 478.47L482.131 479.857L482.02 482.059L480.847 484.104L479.017 485.593L478.304 487.035L477.829 489.825L476.038 492.717L473.297 495.244L470.405 496.449L469.407 497.55L468.86 501.71L465.216 507.217L464.645 512.09L464.875 513.104L466.887 516.234L467.141 521.139L468.496 524.285L466.277 524.728L464.605 523.912L463.362 523.801L459.559 523.912L458.743 524.728L452.135 524.34L449.647 522.525L447.786 522.367L447.572 521.606L447.841 520.949L450.218 516.9L452.793 515.901L454.552 506.448L452.634 506.631L444.601 515.228L443.159 515.141L440.116 516.4L438.698 516.345L438.357 515.988L437.93 514.031L435.656 512.542L432.17 512.439L430.126 513.31L429.429 514.523L427.63 515.664L421.165 516.567L419.39 515.751L417.592 514.166L413.258 512.51L412.141 511.052L411.753 509.824L410.826 509.325L407.078 508.651L403.085 506.86L402 505.212L400.186 504.927L397.294 505.624L395.361 507.415L392.984 508.144L391.883 507.661L389.648 507.978L385.949 507.938L383.944 510.014L383.817 511.686L380.925 515.901L377.994 518.762L369.96 521.583L366.886 519.411L365.429 517.835L364.43 517.549L363.488 516.591L363.028 515.45L363.797 514.435L360.311 511.361L358.48 512.264L357.736 512.193L356.064 511.218L355.422 510.22L352.53 508.207L349.829 507.122L349.401 506.662L348.973 505.062L348.648 500.87L347.777 498.342L347.507 493.105L348.767 490.76L350.399 489.199L350.882 486.655L350.811 483.953L349.441 484.04L348.87 484.896L348.323 485.126L309.922 483.581L308.425 465.491L300.747 456.727L307.727 456.64L307.228 445.84L303.457 438.234L302.76 435.413L303.132 433.899L304.004 433.115L304.931 431.285L302.871 427.093L298.426 425.603L296.897 424.32H296.905Z" fill="black" fill-opacity="0.16"/>
<path d="M531.489 337.365L441.455 332.389L392.786 328.927L387.509 326.795L385.552 327.437L385.053 326.993L384.768 325.432L383.984 324.402L381.654 323.761L380.482 324.006L379.127 323.452L378.802 322.738L378.858 321.162L378.525 319.815L373.692 317.382L369.406 313.436L367.203 311.851L366.173 308.706L365.484 305.291L365.817 301.804L364.715 299.475L362.814 296.717L360.857 291.068L360.303 288.548L356.801 282.74L355.113 281.195L354.297 280.394L354.083 277.589L353.172 275.791L350.898 273.556L349.369 272.724L348.838 271.908L347.65 268.564L347.69 266.948L348.521 265.561L350.597 263.945L351.714 262.075L394.465 170.216L391.875 167.831L392.057 166.714L391.788 166.024L389.799 166.524L388.587 167.395L385.917 166.278L384.34 163.172L380.498 161.096L378.683 159.178L378.572 158.323L376.687 157.15L374.73 156.936L371.513 156.009L368.106 154.139L365.421 153.18L363.487 151.619L362.584 150.336L356.032 146.706L349.401 141.318L348.973 140.692L348.918 139.361L348.133 136.746L345.503 134.987L344.505 135.257L343.99 134.972L341.375 132.143L341.446 129.124L341.946 128.133L341.692 127.547L339.276 126.335L338.935 125.36L338.681 122.111L339.299 120.035L338.729 113.086L336.455 88.8163L337.525 89.2758L338.143 90.1078L338.111 90.7972L338.753 91.3677L340.068 91.7718L342.025 90.7576L342.698 89.6007L346.572 89.9335L347.729 88.428L346.961 85.837L349.52 85.3219L351.532 82.9924L355.303 84.4345L357.989 84.4741L358.758 82.303L363.519 79.9893L366.34 80.544L367.996 80.3855L368.693 80.0289L370.412 77.9133L370.982 75.9086L373.066 74.3318L374.294 74.1733L375.221 74.831L378.24 73.2146L378.826 73.3731L379.357 74.7914L380.403 75.4332L383.302 76.1226L385.608 76.4791L386.408 75.6234L388.793 75.0687L389.91 75.4728L391.082 75.457L392.31 74.9736L395.511 75.4015L402.19 77.3745L403.561 77.1764L404.987 75.9324L404.947 72.6758L401.984 69.1022L400.209 68.1989L400.907 65.798L402.776 63.722L403.18 62.1373L403.624 61.8917L404.638 62.1611L405.827 63.2466L409.186 64.8314L425.8 61.5034L428.042 63.9201L429.5 64.0073L430.126 63.5953L431.013 64.4114L431.544 67.6997L430.656 69.5618L430.3 76.0512L430.641 78.1114L431.084 78.88L432.756 78.9117L434.301 78.4997L439.15 79.0305L440.996 79.7278L443.753 81.2254L444.711 82.3664L445.409 84.1968L447.112 84.3711L448.744 85.5755L449.885 86.978L451.089 87.3662L452.991 87.1681L453.537 86.5659L454.884 86.3678L458.949 90.1712L459.923 90.1316L460.62 91.8193L459.646 92.1521L459.376 93.1822L460.462 97.2312L463.354 100.464L467.03 101.51L467.275 101.985L466.657 106.478L466.927 109.497L467.885 111.66L468.773 112.46L469.613 115.051L469.43 117.31L471.577 122.286L472.75 122.555L473.867 122.04L478.058 126.731L477.947 130.209L478.534 131.556L479.888 131.826L480.364 132.499L480.807 134.758L480.506 135.748L480.665 137.61L483.335 139.599L483.953 141.746L486.029 143.22L490.022 144.195L491.883 144.02L492.985 143.537L494.332 143.624L493.571 144.686L493.983 146.96L493.737 147.721L491.891 149.305L489.903 149.551L489.19 149.298L487.985 148.164L487.043 147.951L482.21 150.209L481.679 150.977L479.389 152.007L478.486 151.976L476.268 152.816L476.323 153.648L485.561 152.134L486.821 153.077L487.003 153.735V154.678L486.116 155.391L486.543 155.906L487.447 155.621L488.675 154.194L490.133 154.178L490.893 153.79L491.749 153.965L493.278 153.362L494.91 152.546L499.6 149.202L501.747 148.703L504.378 147.546L508.894 144.916L509.662 143.489L510.621 142.745L513.608 141.303L514.55 140.272L514.194 139.314L514.495 138.727L516.111 138.323L517.672 138.41L518.258 138.712L518.805 144.147L518.06 147.84L518.536 150.153L519.692 152.443L521.562 154.377L521.99 156.722L521.816 157.395L519.185 160.026L518.512 160.208L517.268 159.464L514.669 158.719L512.871 158.275L511.54 158.473L508.497 156.983L508.125 155.383L506.865 154.622L503.609 160.082L502.738 163.473L503.712 167.72L504.401 168.639L505.717 169.527L504.275 167.894L503.657 164.051L503.831 163.307L507.507 157.269L510.811 158.956L510.969 159.598L514.59 163.101L514.233 165.993L513.172 166.777L513.742 170.105L514.487 171.721L516.087 172.791L517.149 173.005L517.894 173.702L517.411 172.791L516.309 172.45L514.59 170.961L514.273 169.986L514.756 163.98L515.929 162.276L517.973 163.322L519.161 165.042L519.035 166.175L520.754 167.403L521.11 166.991L519.684 165.192L518.369 162.189V161.563L521.602 158.243L523.915 158.37L526.672 159.281L527.155 160.082L526.284 160.922L526.743 161.326L527.433 161.365L528.906 161.12L530.808 159.836L536.655 158.465L537.756 158.75L540.244 160.264L544.776 159.662L546.305 159.075L547.763 157.633L549.165 156.793L551.653 156.064L552.754 156.167L552.841 157.237L549.925 162.99L549.585 165.137L548.927 166.666L547.739 168.14L547.723 169.4L548.555 171.428L548.095 174.962L549.355 173.259L549.371 171.254L551.573 166.967L553.19 162.403L554.79 160.169L555.178 159.781L556.264 159.709L557.096 159.21L559.694 158.877L560.954 156.944L563.117 154.527L565.058 151.294L565.803 150.637L566.936 151.334L567.823 150.676L570.136 154.02L571.84 154.86L571.768 153.798L571.269 152.728L572.157 151.286L577.172 150.557L575.698 150.098L570.683 150.755L570.239 150.454L570.651 146.976L571.38 146.564L572.339 147.111L573.797 147.269L575.326 142.84L574.351 140.851L574.391 139.876L576.063 137.285L580.127 133.735L580.642 133.625L582.226 135.257L586.418 132.27L587.075 132.167L587.646 132.808L587.788 133.625L587.329 134.583L588.858 134.354L590.015 133.522L590.529 132.404L591.433 132.135L591.837 132.349L592.898 134.338L594.8 136.057L595.085 135.257L594.927 134.71L593.556 134.013L593.358 133.601L593.176 131.881L593.421 131.279L594.047 131.01L597.303 131.382L598.991 132.309L599.878 133.767L602.208 134.781L604.569 133.664L605.329 136.723L604.616 137.166L604.577 138.006L605.892 137.261L607.548 133.902L608.094 134.235L607.769 136.136L608.356 136.762L611.945 136.39L612.586 137.317L613.244 139.718L612.388 141.073L613.6 140.36L613.973 140.891L616.675 141.089L621.721 139.314L621.278 141.572L620.208 144.187L622.308 143.489L623.147 142.602L624.051 144.916L622.949 145.558L622.276 147.031L622.506 149.004L621.492 155.28L620.676 156.342L619.043 156.556L618.972 157.443L619.36 158.14L620.779 157.911L621.397 158.671L621.286 160.977L620.002 165.295L619.487 166.31L616.999 168.552L616.286 171.959L616.469 174.305L611.208 178.726L612.697 180.984L611.564 182.141L611.818 184.74L611.16 186.57L609.972 188.646L607.857 191.166L605.052 193.369L602.762 200.072L602.35 202.79L601.677 204.517L598.191 207.837L596.59 208.495L595.703 212.615L593.485 214.287L592.867 215.935L590.648 219.042L588.977 220.357L585.617 220.024L564.583 236.941L565.28 237.052L568.552 238.209L571.222 237.868L573.068 238.042L574.526 240.42L575.08 240.863L576.324 241.061L578.122 242.733L578.067 243.637L577.536 244.595L576.506 245.126L575.12 245.229L574.708 245.633L574.835 247.646L576.276 249.563L574.961 253.494L574.042 254.183L571.959 254.841L571.602 255.498L572.014 257.218L571.745 259.135L569.883 259.349L567.72 261.267L566.508 263.081L566.722 265.244L566.381 265.958L562.808 267.677L557.935 269.309L554.402 271.853L554.132 272.352L554.75 275.482L554.838 279.301L553.007 282.304L550.995 284.705L550.781 285.521L551.027 286.781L551.867 288.152L554.251 290.64L555.321 291.099L555.535 291.527L554.592 297.303L552.073 304.665L550.528 305.821L548.095 310.457L547.842 311.875L546.495 314.078L545.433 315.29L543.928 315.52L541.971 316.835L540.497 319.585L538.77 321.986L537.083 323.547L535.435 325.805L533.819 332.183L531.529 337.421L531.489 337.365ZM561.746 151.017L555.281 153.822L550.432 154.567L547.541 154.123L546.614 155.739L543.983 157.443L542.953 156.571L542.082 154.385L541.757 154.789L542.359 156.548L541.876 157.705L540.862 158.291L535.474 155.945L534.333 156.976L528.344 158.774L523.765 157.958L522.608 157.086L522.267 154.44L521.934 153.854L520.35 152.396L518.837 150.106L518.536 147.562L519.28 143.632L520.168 143.085L522.687 143.6L524.018 142.531L524.129 141.73L522.267 142.348L520.524 142.166L519.177 141.152L518.924 139.647L519.407 132.381L520.453 131.295L520.952 132.365L523.471 133.22L524.256 133.133L523.598 132.531L521.784 132.214L520.5 129.124L521.015 126.723L522.291 123.902L524.192 122.001L525.563 121.184L527.48 120.487L529.366 120.305L534.31 121.05L544.617 123.577L549.91 122.92L550.068 122.492L551.7 121.604L554.79 121.073L558.926 121.485L562.927 122.658L572.188 123.871L573.092 124.544L573.02 126.303L572.022 127.365L571.047 129.512L570.532 133.3L569.304 138.022L567.458 138.997L566.959 139.987L567.292 141.691L564.464 145.383L562.475 150.391L561.778 151.033L561.746 151.017ZM494.244 150.779L493.175 150.05L494.751 146.833L494.625 144.274L494.981 143.973L498.309 143.283L499.592 142.055L499.806 141.342L499.521 137.998L500.749 134.306L502.547 132.174L505.82 130.075L509.924 129.789L510.953 133.165L509.377 136.295L508.165 140.645L506.588 141.604L504.671 144.504L503.554 145.534L496.487 150.264L494.229 150.779H494.244ZM534.967 118.031L533.494 117.674L529.992 117.785L528.859 117.555L528.447 117.183L527.9 115.622L527.916 113.847L530.079 113.245L532.781 113.3L535.91 111.454L542.787 110.598L543.888 110.971L544.863 111.945L544.609 113.403L540.949 115.392L538.406 118.942L536.829 119.655L534.967 118.023V118.031ZM541.82 118.031L544.483 116.311L547.311 116.351L549.672 117.238L550.432 118.657L550.504 119.544L549.244 120.646L545.172 121.05L543.5 121.509L540.268 120.234L539.982 119.473L541.828 118.031H541.82ZM517.537 124.306L516.824 123.934L515.953 123.989L513.75 122.999L514.051 121.343L514.962 120.028L517.712 119.457L521.087 118.173L522.972 118.284L524.113 119.259L524.24 119.441L521.483 121.747L519.954 122.23L517.537 124.306ZM531.006 110.448L529.833 110.02L529.588 107.643L529.802 106.787L531.473 104.917L534.975 103.602L535.332 103.776L536.092 104.751L536.148 106.026L533.359 108.871L530.998 110.456L531.006 110.448ZM511.231 139.369L511.033 138.783L511.302 137.452L512.792 133.434L516.491 131.018L517.521 130.614L518.512 130.812L518.282 133.371L516.048 133.997L513.734 137.127L511.231 139.361V139.369ZM526.831 114.243L525.127 113.8L524.699 113.11L525.959 111.739L526.973 106.09L528.249 104.331L528.661 104.513L528.764 104.973L528.732 108.522L529.588 111.193L529.128 112.453L527.655 113.023L526.823 114.235L526.831 114.243ZM505.653 128.815L505.265 128.545L505.439 127.674L506.224 127.159L507.927 124.71L509.012 122.508L510.058 121.565L512.134 120.796L511.849 122.928L511.278 124.354L508.822 126.731L505.661 128.815H505.653ZM525.492 118.76L524.636 118.546L523.432 117.532L522.061 115.186L521.99 114.639L522.315 114.227L523.471 113.395L526.118 114.6L526.53 115.218L526.87 118.205L525.484 118.76H525.492ZM517.799 162.459L516.872 162.3L515.612 161.555L514.622 162.213L513.552 161.809L511.152 159.321V158.449L512.982 158.433L517.355 160.319L517.799 162.451V162.459ZM487.558 154.535L487.613 153.061L487.328 152.633L488.184 151.215L491.559 149.955L492.676 150.502L493.92 151.73L493.508 152.229L492.034 152.903L488.405 153.489L487.566 154.535H487.558ZM505.717 144.971L505.463 144.932L505.479 144.432L506.247 143.085L508.806 140.772L509.409 138.997L509.48 137.135L509.821 136.707L510.28 137.333V139.496L509.004 143.402L508.117 144.329L505.717 144.971ZM514.725 130.812L517.086 126.58L518.345 126.279L519.36 126.549L519.748 127.793L518.916 128.807L514.725 130.812ZM559.647 157.942L558.442 157.443L557.959 155.93L559.449 153.473L560.978 152.998L561.247 153.14L561.215 154.202L560.154 157.403L559.639 157.95H559.647V157.942ZM511.777 130.099L511.009 129.813L511.468 126.897L513.37 124.306L513.695 124.362L515.541 125.622L515.525 125.978L513.307 126.889L511.777 130.091V130.099ZM514.962 137.293L515.992 137.333L515.422 137.975L514.075 138.418L513.917 140.019L512.784 141.033L510.367 142.238L510.137 141.984L510.526 140.795L511.199 139.892L513.671 137.507L514.954 137.293H514.962ZM482.709 151.896L481.925 151.627L481.822 151.128L482.44 150.557L487.526 148.267L488.294 149.266L488.279 149.551L486.274 150.597L482.701 151.896H482.709ZM573.543 145.058L572.07 144.789L570.897 143.656L572.141 141.865L574.058 141.849L574.327 143.553L574.185 144.393L573.543 145.05V145.058ZM520.286 118.031L516.911 119.029L516.072 119.045L515.818 118.744L517.292 117.254L518.781 116.525L520.271 116.771L520.896 117.254L521.11 117.579L520.896 117.88L520.294 118.023L520.286 118.031ZM512.744 130.312L512.633 129.227L512.99 128.514L516.539 126.43L515.255 129.29L514.099 130.194L512.752 130.32L512.744 130.312ZM515.81 136.794L515.168 136.62L515.065 136.287L516.182 134.14L517.886 134.171L517.712 136.105L515.81 136.794ZM555.899 159.432L555.495 159.107L556.779 156.817L557.753 156.247L558.078 157.316L558.807 157.847L558.434 158.592L557.816 159.075L556.913 158.822L555.883 159.44H555.899V159.432ZM517.783 126.081L516.507 125.978L516.539 125.709L519.914 123.078L519.97 124.449L519.637 125.352L519.28 125.836L517.783 126.081ZM614.234 140.692L613.688 139.932L613.957 138.846L615.415 137.547L615.771 137.761L616.096 140.265L614.226 140.692H614.234Z" fill="black" fill-opacity="0.16"/>
<path d="M724.052 182.45L725.921 182.624L726.912 182.292L730.112 183.021L731.531 184.233L731.99 185.089L731.832 186.23L730.271 188.876L728.013 191.697L727.759 193.781L728.171 195.627L730.746 202.378L735.246 211.562L735.872 214.034L737.813 216.308L737.782 217.393L736.72 219.335L737.853 224.865L737.164 227.155L738.59 230.032L739.445 234.31L738.606 236.569L737.465 237.401L738.78 238.391L738.938 238.938L740.285 250.609L739.945 251.251L741.03 254.928L742.527 262.36L743.969 266.179L745.839 267.106L749.499 267.78L750.601 269.436L750.585 270.426L748.438 273.643L746.806 278.089L746.917 279.475L747.891 280.45L747.804 282.336L745.245 282.565L744.5 283.041L744.342 283.683L744.429 285.038L745.284 286.654L745.181 289.784L747.495 292.042L747.907 292.811L747.82 296.059L746.758 298.579L741.196 304.11L739.81 304.514L736.538 306.416L735.769 307.66L732.949 310.108L729.201 311.923L728.56 313.579L726.412 316.867L724.915 317.826L723.782 317.572L720.922 318.119L721.081 321.55L718.418 324.125L717.959 324.054L717.072 323.166L713.982 323.15L712.809 324.553L711.708 325.068L707.802 325.551L705.639 327.469L704.466 329.212L702.034 329.355L699.919 330.266L695.633 330.424L694.46 330.02L694.191 329.616L694.373 328.673L691.925 327.271L690.023 326.716L688.035 327.5L684.992 328.119L684.533 327.865L683.947 326.534L681.8 325.876L679.011 325.908L674.376 328.269L674.289 329.6L677.49 335.947L677.664 337.595L677.252 341.272L676.895 342.571L675.865 343.799L671.651 351.018L667.404 354.481L665.471 355.083L663.355 354.322L661.438 354.076L658.293 355.146L656.621 356.422L655.662 357.666L654.03 358.213L652.961 360.289L652.485 360.59L649.467 360.336L646.892 361.081L640.918 358.434L638.391 354.877L637.63 351.715L636.687 350.226L634.628 348.308L631.3 348.34L627.093 348.039L627.164 345.297L627.537 343.784L629.185 340.281L629.367 331.185L630.452 329.18L630.492 328.451L628.02 324.077L627.347 319.513L626.348 316.74L627.394 313.88L629.826 311.875L631.546 308.325L631.728 306.162L632.211 304.974L632.639 304.672L634.699 300.75L635.602 297.43L636.157 293.183L637.559 288.92L640.601 286.131L644.491 285.046L648.223 284.602L649.752 284.071L652.184 281.884L653.682 281.829L655.599 281.084L659.687 277.407L663.031 276.108L665.907 273.247L666.81 272.003V271.346L669.527 268.596L670.24 268.279L671.445 267.938L671.777 268.366L673.378 267.994L674.804 267.138L676.887 266.869L678.329 267.17L681.918 269.769L684.081 269.626L687.567 268.398L688.756 268.342L689.683 268.747L692.939 268.335L694.666 266.465L695.379 264.381L695.553 262.653L695.965 262.027L696.52 258.882L696.338 257.669L696.092 256.956L693.787 255.657L691.243 252.757L690.515 249.468L690.356 246.449L690.602 242.9L696.465 236.569L696.766 235.784L696.908 232.306L696.124 228.043L693.866 224.041L695.498 219.937L695.902 217.837L695.355 216.023L693.597 214.818L693.097 212.069L694.199 210.571L695.11 210.325L696.282 207.497L698.984 204.85L700.244 202.235L700.188 199.676L704.363 194.803L705.52 195.033L710.25 194.375L716.153 188.702L718.712 185.453L719.266 183.266L718.347 182.506L718.03 181.475L718.688 179.415L719.734 179.59L721.833 180.834L722.562 181.563L722.38 182.006L723.964 182.482L724.052 182.45Z" fill="black" fill-opacity="0.16"/>
<path d="M568.267 715.11L560.772 715.07L560.296 715.696L557.809 716.037L556.723 715.934L556.565 715.379L554.323 716.195L552.389 718.24L547.596 721.282L545.536 721.053L543.777 720.165L539.301 716.449L537.827 715.894L536.742 715.879L532.678 716.924L529.35 717.17L528.193 717.13L526.165 716.045L524.581 716.243L522.394 717.17L521.554 719.27L520.508 720.514L517.838 721.916L512.736 721.33L509.876 722.978L508.846 724.08L507.856 726.354L509.068 730.632L507.824 731.861L506.509 731.892L505.439 732.439L505.194 733.136L503.292 730.434L497.215 730.617L491.836 729.998L489.578 728.311L489.348 727.724L487.875 726.821L481.782 726.306L474.216 723.905L470.872 724.721L467.03 724.682L464.138 722.669L463.679 721.94L462.165 721.599L461.405 721.584L460.391 722.114L455.201 722.083L454.884 720.355L451.264 714.381L451.295 710.681L449.877 706.56L444.989 703.169L443.428 704.785L440.394 704.627L438.817 705.245L437.288 706.529L435.204 704.983L434.032 705.071L433.628 701.925L434.57 699.683L436.099 697.868L437.842 694.754L437.93 694.271L437.232 693.201L437.264 691.426L438.548 686.22L440.346 681.902L439.99 678.614L441.82 675.206L441.519 673.748L440.314 672.489L439.871 670.199L440.813 668.685L441.946 667.917L445.353 665.682L445.868 664.509L448.11 653.187L448.586 652.687L450.17 652.228L452.547 650.786L453.506 649.811L455.581 644.724L455.55 643.076L456.881 639.748L458.465 638.575L466.198 635.327L470.857 632.054L476.331 632.981L482.067 632.823L486.742 633.235L488.469 632.347L488.968 631.492L490.014 630.961L491.685 631.373L493.801 632.49L497.406 633.148L501.177 634.709L503.047 634.891L504.576 634.122L508.268 634.106L509.385 635.533L511.888 636.737L516.903 637.878L517.807 638.607L518.821 640.493L521.293 640.596L521.895 640.113L524.256 640.326L525.199 641.095L532.789 641.277L537.035 640.065L538.651 642.284L543.785 646.333L545.061 648.852L545.077 652.767L544.522 653.599L544.292 654.755L544.839 657.386L546.701 659.549L546.59 662.069L546.075 662.869L548.206 667.156L549.933 668.804L550.892 669.208L551.605 670.183L551.534 671.458L552.849 674.279L553.705 674.691L554.061 675.317L553.705 676.815L551.89 679.858L552.35 682.773L553.206 683.32L554.647 683.621L558.054 683.447L562.943 682.686L563.656 683.241L565.914 682.972L568.187 683.154L570.493 684.952L570.295 685.539L569.019 686.466L568.029 691.188L568.528 692.306L570.057 693.066L570.984 691.854L572.561 687.908L573.646 687.662L576.704 688.494L576.134 691.283L577.18 696.006L579.208 696.838L579.438 698.724L577.505 700.182L576.633 702.297L575.849 702.123L576.237 699.35L578.297 697.995L576.284 698.399L575.009 699.096L573.765 699.065L573.282 698.51L572.466 698.264L571.697 698.795L571.293 700.126L572.038 701.267L570.992 702.638L570.564 702.781L567.015 702.02L565.882 701.251L565.24 701.426L564.987 702.709L565.47 703.24L567.775 704.041L569.78 703.684L572.822 704.54L573.21 705.229L571.824 706.204L569.621 710.181L567.847 711.283L564.384 712.099L564.099 712.741L568.314 712.456L568.528 714.159L568.243 715.15L568.267 715.11Z" fill="black" fill-opacity="0.16"/>
<path d="M670.644 644.867L670.541 643.75L671.088 643.361L675.652 643.678L679.351 642.838L675.731 640.62L673.726 639.907L669.709 640.881L667.768 643.171L666.295 643.631L665.296 643.559L663.363 640.485H662.674L661.391 641.087L660.02 642.601L655.52 643.742L655.037 645.041L654.767 647.759L657.897 647.941L659.426 649.383L657.778 650.928L656.431 650.683L654.403 650.928L653.713 650.556L651.384 648.084L651.313 647.497L652.874 642.49L654.434 640.842L657.794 639.4L658.507 639.613L662.468 639.098L664.615 638.084L666.976 635.01L665.907 632.664L663.474 632.649L658.974 633.409L656.447 632.855L654.688 630.58L653.888 628.909L652.073 628.14L653.048 627.443L656.51 626.381L660.67 624.463L664.362 624.218L665.075 624.606L667.531 623.505L669.028 622.403L674.875 619.844L675.62 619.741L676.135 620.185L680.714 620.082L682.505 619.836L684.834 618.489L685.65 618.402L689.271 618.79L689.968 619.036L689.936 619.709L691.909 619.424L705.504 612.942L709.125 611.524L709.426 610.779L709.022 609.908L706.962 609.725L707.089 608.656L709.791 603.347L713.166 594.71L712.12 593.696L712.92 592.999L714.695 592.61L718.316 589.235L721.073 590.32L722.031 597.056L725.604 598.672L731.792 600.114L736.07 599.583L738.384 601.097L738.273 602.911L736.926 605.217L736.609 608.26L738.241 617.958L737.528 618.933L733.123 621.437L724.59 624.21L720.542 626.666L715.535 631.943L715.376 634.32L715.82 636.024L715.55 638.338L714.505 640.453L711.906 641.182L702.541 640.937L694.262 641.935L690.847 641.277L690.15 640.731L690.063 639.756L691.537 637.64L692.495 635.564L692.369 634.677L691.251 634.423L687.258 636.072L686.886 637.062L687.33 638.195L689.302 639.867L689.659 641.254L688.819 641.998L686.49 642.727L684.248 642.688L672.752 644.217L670.668 644.859H670.644V644.867ZM663.34 647.711L662.381 646.325L665.399 644.106L668.062 645.453L668.68 646.452L665.162 647.165L664.576 646.666H663.902L663.348 647.711H663.34Z" fill="black" fill-opacity="0.16"/>
<path d="M268.819 417.03L266.973 414.954L266.347 412.268L264.113 411.523L262.885 411.983L260.294 412.094L254.471 409.503L254.455 408.932L253.512 408.06L251.698 408.9L248.869 406.499L246.698 405.113L245.47 403.021L245.066 401.032L243.577 400.477L241.049 402.078L239.306 402.038L237.294 400.897L236.05 398.996L231.574 396.738L228.769 396.492L227.137 397.26L225.854 398.473L223.81 398.227L223.366 397.799L220.308 397.07L215.934 396.666L214.849 396.048L213.161 394.345L212.734 391.524L210.476 390.826L207.774 389.44L206.601 386.983L206.189 386.698L202.299 386.294L201.753 385.795L200.548 380.486L199.289 379.21L198.599 380.866L197.657 380.407L197.268 379.496L198.156 377.309L196.951 375.138L195.01 374.583L193.212 369.623L192.966 367.246L195.185 363.086L194.884 360.709L193.228 357.888L192.158 354.798L192.071 351.525L192.958 350.812L193.505 348.855L194.995 347.357L195.51 345.258L195.169 343.126L194.567 341.85L194.44 339.663L195.208 337.302L193.537 334.188L192.079 333.641L190.518 335.044L190.431 335.773L189.227 337.144H188.411L185.297 335.686L177.889 335.797L169.872 338.34L167.455 338.324L165.34 339.014L161.093 337.215L165.752 333.554L168.501 332.722L170.719 330.131L170.933 329.331L170.703 327.485L176.368 327.857L180.472 327.382L181.502 327.913L184.806 331.241L185.337 331.209L187.08 330.076L187.262 329.046L187.848 328.285L189.393 327.572L190.494 327.754L192.451 327.2L194.313 325.472L196.944 324.014L197.49 324.141L198.401 327.374L199.376 328.134L200.35 328.024L203.979 323.507L203.607 321.003L204.367 319.799L206.871 318L207.528 318.032L208.733 318.816L211.292 318.959L213.011 317.43L216.053 316.883L221.583 317.541L221.243 315.449L221.401 312.858L224.348 311.13L225.505 309.482L226.02 308.024L225.774 307.382L224.491 306.384L224.562 305.425L226.266 303.151L229.815 302.391L230.187 302.074L230.061 300.402L232.517 299.689L234.489 296.028L249.915 295.941L252.989 297.557L253.631 298.254L254.772 300.988L256.673 302.803L260.302 304.205L262.092 308.88L262.75 309.181L264.152 308.999L265.04 309.284L266.014 313.404L270.649 315.52L271.623 315.251L272.392 312.763L275.133 311.217L277.122 311.622L277.637 312.168L277.581 313.167L279.586 314.553L280.441 316.328L279.356 318.357L277.51 325.496L277.597 325.995L278.714 326.669L279.087 327.54L279.3 329.529L280.489 332.778L279.142 335.163L279.689 337.92L278.263 342.952L278.223 344.093L278.611 346.612L280.758 350.543L279.475 363.411L304.011 363.482L303.671 364.282L305.414 365.867L310.421 365.74L312.006 365.899L313.535 366.517L315.547 371.651L315.301 372.721L313.297 375.225L311.356 376.77L311.158 378.656L311.776 383.307L312.608 384.036L313.891 383.996L316.078 388.774L316.022 391.706L316.854 393.837L316.751 396.286L315.951 399.487L313.574 402.363L312.829 405.58L311.998 406.785L311.38 407.371L309.035 408.132L307.703 409.677L305.659 415.081L304.915 418.583L299.036 422.26L296.936 424.304L295.875 424.248L292.175 422.03L290.361 419.985L280.235 421.356L278.35 420.738L277.993 420.31L273.16 421.253L272.471 421.023L271.726 419.09L268.85 417.006L268.819 417.03Z" fill="black" fill-opacity="0.16"/>
<path d="M336.439 88.7766L338.729 113.047L312.291 112.944L312.33 113.918L309.003 118.577L306.626 122.912L306.523 124.528L304.875 128.3L304.717 129.243L305.041 130.289L306.673 132.301L306.642 133.062L306.04 133.617L303.14 134.401L301.128 136.414L299.337 137.071L296.738 136.746L295.423 133.157L292.753 130.241L288.705 128.91L286.415 128.997L285.631 130.273L282.644 131.287L280.814 132.278L279.356 134.076L278.183 138.323L278.714 140.898L278.358 143.371L277.288 146.643L277.914 149.662L274.539 148.172L272.622 148.775L271.861 148.672L270.371 145.756L268.256 143.394L265.451 141.524L264.707 141.469L257.545 135.146L257.743 133.514L260.373 133.989L262.005 132.103L262.092 131.271L260.476 125.083L259.644 123.799L257.901 122.595L256.641 119.489L256.229 112.365L257.045 110.995L258.147 106.644L257.204 104.386L256.689 102.112L259.002 100.02L258.931 99.3785L257.687 97.7779L257.418 94.5451L255.041 87.7386L251.135 82.3902L252.149 80.2429L253.448 75.4966L252.751 74.5537L249.962 73.1987L248.021 73.0403L246.762 73.3413L245.375 72.8105L243.648 71.1386L243.561 69.7678L242.658 69.6093L241.041 70.2115L240.17 70.1957L239.1 69.7123L238.07 68.5951L238.498 67.9374L238.831 64.6808L238.403 64.3639L233.586 64.0311L228.222 64.2291L223.493 63.2308L223.207 62.375L224.348 59.8553L224.523 57.7397L223.477 55.212L220.704 50.1488L219.658 47.2012L218.985 41.8844L220.118 39.7688L220.007 38.398L217.376 35.5376L214.286 34.0242L210.27 30.0465L208.756 27.4555L208.344 26.0847L206.712 25.1576L206.356 24.6029L206.395 23.3986L206.807 22.9231L208.091 23.0261L209.691 23.9691L211.038 26.4412L211.91 26.568L216.758 25.8549L218.691 25.9975L221.425 26.8374L222.296 28.5569L223.081 31.3143L223.849 31.8135L225.22 31.7025L226.281 30.7755L227.636 30.205L232.184 30.4348L232.857 30.5061L234.727 32.2334L235.583 32.4474L236.327 32.2493L237.199 30.0148L239.069 30.2129L241.144 31.5441L246.762 38.0811L248.267 38.8972L249.281 39.0557L251.444 38.0811L252.506 36.4647L252.648 35.2603L251.46 31.3143L251.975 28.8263L252.632 28.4222L255.39 28.3508L256.832 26.774L259.05 25.2131L260.119 25.2844L265.697 27.2019L266.537 26.9563L267.678 25.9262L269.151 25.4983L270.768 25.9975L272.241 25.6964L274.159 23.8661L275.585 23.5095L277.233 23.8423L278.817 23.7393L279.792 22.527L279.863 20.5936L284.197 18.0025L287.524 18.2719L291.47 17.7173L292.745 16.1009L292.872 15.0866L293.712 13.4861L294.781 13.3038L297.428 12.0202L299.004 10.5305L300.589 8.08213L298.87 2.99514L297.198 2.4801L298.109 2.22655L300.153 2.32955L301.294 2.78913L306.396 2.6465L307.909 1.29156L308.971 0.974609L310.928 1.57681L311.689 3.44679L313.178 4.5878L313.867 6.54494L312.909 13.5495L311.879 15.5224L310.088 16.5208L310.175 17.7094L312.481 18.2957L314.794 17.9788L318.154 19.1356L320.752 20.7124L319.493 22.7567L319.477 24.4049L322.82 29.2938L323.105 31.5124L320.942 35.6881L318.257 37.7008L317.227 39.8481L317.615 40.4027L317.702 43.5088L315.602 46.9556L314.319 50.9174L313.875 54.594L313.749 58.4132L315.151 61.0835L315.88 63.6032L315.864 65.6079L318.106 67.0817L319.389 67.3669L319.572 68.3415L318.914 75.7026L319.088 76.7644L321.679 77.1764L320.736 78.8483L321.394 79.5614L324.468 80.6232L326.56 83.3727L330.363 87.287L336.408 88.7766H336.439Z" fill="black" fill-opacity="0.16"/>
<path d="M461.373 914.049L460.858 914.065L458.085 912.48L457.8 911.823L458.545 905.714L457.887 899.636L458.101 898.107L459.004 896.332L463.068 892.925L464.257 890.69L467.545 887.03L465.461 884.668L463.932 883.781L460.715 882.925L457.396 879.708L455.669 877.394L455.526 875.12L454.908 873.433L453.149 870.533L450.202 867.331L449.243 866.492L445.829 864.764L443.753 865.065L441.035 862.902L438.864 860.572L437.074 859.455L436.876 857.023L434.158 853.932L429.413 853.275L428.098 852.601L425.626 850.224L423.106 850.406L420 848.433L417.267 843.125L415.683 840.993L412.062 837.958L411.064 838.069L410.105 840.629L406.405 843.83L402.586 844.004L402.729 839.916L403.299 838.085L402.745 836.659L397.524 830.526L394.133 827.998L391.019 825.051L388.515 822.032L384.673 818.87L381.955 818.672L378.881 818.973L377.249 820.915L377.162 822.285L375.689 823.672L374.104 823.704L373.272 823.014L368.756 823.213L367.829 822.523L367.599 821.224L366.902 820.907L368.114 820.59L369.604 819.56L373.209 815.598L373.367 812.967L374.223 811.176L375.395 810.535L377.241 810.432L378.16 810.059L379.476 808.633L387.272 799.37L388.175 797.342L388.42 795.757L389.593 794.228L391.312 793.015L393.269 792.429L396.074 786.391L396.216 785.52L396.66 784.989L399.005 783.761L401.334 781.185L402.547 779.537L403.276 777.691L405.193 774.688L406.524 774.276L408.766 774.53L409.55 775.663L410.224 773.832L409.923 773L407.99 771.828L407.918 771.313L408.417 770.837L409.962 770.29L411.135 768.92L415.128 767.565L416.625 766.035L416.768 764.72L417.941 763.421L421.102 761.772L424.635 761.202L427.163 758.611L427.377 757.097L429.262 753.722L429.737 753.667L429.809 754.182L430.221 754.467L432.122 754.221L435.608 752.605L439.443 751.765L441.17 750.949L444.173 747.589L444.886 747.605L445.844 747.05L447.286 745.117L450.59 744.071L451.018 744.618L456.049 745.172L460.707 743.524L461.508 742.367L463.441 743.199L463.227 744.515L467.632 744.475L469.961 745.893L473.622 745.363L476.363 747.011L480.055 746.424L482.257 746.678L486.258 746.448L489.491 747.763L493.04 749.768L494.466 753.255L496.74 753.524L496.867 752.835L499.458 752.335L507.404 757.399L509.361 759.617L510.375 759.578L512.609 760.98L516.943 765.972L519.288 769.134L519.978 771.249L523.083 775.053L524.755 775.837L534.318 777.35L537.336 776.78L542.13 777.263L543.389 780.607L540.418 782.865L538.604 783.452L537.558 786.114L537.875 789.244L537.328 791.478L536.584 793.34L534.896 793.626L533.05 796.042L533.01 798.055L535.585 799.727L535.974 799.441L535.569 798.055L535.585 796.684L537.717 795.511L539.975 796.431L541.02 797.73L542.692 798.942L543.334 798.903L541.329 801.375L535.752 811.446L529.73 828.03L520.722 843.014L512.942 852.538L503.633 861.064L494.926 866.325L490.497 872.49L490.243 871.872L491.17 869.613L491.654 866.499L489.966 864.051L490.109 863.449L491.44 863.203L492.882 863.774L493.682 864.606L495.14 864.661L498.832 862.648L500.004 861.674L504.077 856.365L505.146 855.375L505.788 855.644L507.246 855.375L508.743 854.17L510.074 852.356L510.605 850.24L510.858 848.909L510.526 845.906L510.811 843.949L513.053 843.846L514.115 844.274L514.503 845.462L515.002 845.09L514.59 843.085L515.319 840.122L516.008 839.305L519.922 837.031L520.968 835.486L521.641 831.556L521.34 828.299L522.14 827.325L522.853 828.466L523.384 828.505L524.002 827.903L524.676 823.498L524.533 822.872L523.178 821.129L522.22 821.089L521.847 822.079L522.093 822.634L521.895 823.45L521.396 823.735L519.233 823.704L516.357 824.274L515.874 826.58L515.113 826.651L513.956 826.025L514.099 823.577L512.926 822.301L511.437 822.777L510.581 822.087L509.535 820.289L508.965 818.213L509.139 817.396L508.228 816.406L507.357 820.281L507.982 823.498L509.773 826.517L508.957 827.674L507.895 831.303L508.442 835.637L508.188 836.738L507.499 836.207L507.872 835.867L507.832 834.852L507.159 833.022L506.517 832.467L505.756 833.41L505.717 835.367L503.704 840.042L503.633 842.744L503.95 843.489L502.92 844.488L500.614 845.407L499.743 847.665L493.896 849.907L492.866 850.668L492.105 852.942L491.963 856.191L490.576 859.439L487.201 861.301L487.043 863.821L487.732 865.01L488.088 866.468L486.734 867.268L486.377 869.431L486.995 870.287L487.97 870.089L489.832 870.992L490.045 872.292L487.003 874.653L483.683 881.119L480.926 890.96L478.05 897.378L475.65 900.983L464.51 911.751L461.405 914.026L461.373 914.049Z" fill="black" fill-opacity="0.16"/>
<path d="M543.318 798.918L542.676 798.958L541.004 797.746L539.959 796.43L537.685 795.527L535.569 796.7L535.554 798.071L535.958 799.457L535.569 799.743L532.995 798.071L533.05 796.058L534.88 793.641L536.568 793.356L537.328 791.486L537.859 789.267L537.542 786.138L538.588 783.475L540.402 782.873L543.373 780.615L542.114 777.271L537.32 776.788L534.302 777.358L524.739 775.845L523.083 775.076L519.977 771.273L519.28 769.157L516.951 765.996L512.617 761.004L510.375 759.585L509.361 759.625L507.404 757.406L499.458 752.343L496.867 752.827L496.74 753.516L494.45 753.247L493.024 749.76L489.491 747.771L486.242 746.44L482.249 746.67L480.047 746.416L476.347 747.003L473.614 745.355L469.937 745.87L467.608 744.467L463.203 744.507L463.417 743.176L461.484 742.344L460.684 743.5L456.025 745.156L450.994 744.602L453.07 740.41L454.116 737.423L453.284 732.772L453.87 728.184L453.815 724.539L455.185 722.035L460.375 722.067L461.389 721.52L462.149 721.536L463.663 721.877L464.106 722.606L467.006 724.618L470.841 724.658L474.184 723.826L481.75 726.227L487.843 726.742L489.301 727.645L489.546 728.232L491.788 729.919L497.176 730.521L503.253 730.339L505.154 733.057L505.408 732.344L506.469 731.797L507.784 731.766L509.028 730.537L507.816 726.259L508.806 724L509.836 722.883L512.696 721.251L517.799 721.821L520.469 720.435L521.514 719.191L522.354 717.075L524.541 716.148L526.126 715.95L528.154 717.035L529.31 717.075L532.638 716.829L536.702 715.783L537.772 715.799L539.261 716.37L543.722 720.086L545.481 720.973L547.541 721.203L552.334 718.161L554.267 716.116L556.501 715.3L556.676 715.855L557.761 715.958L560.249 715.625L560.724 714.999L568.219 715.039L567.664 716.924L568.393 719.286L568.29 719.84L566.143 721.473L564.741 720.783L563.568 717.162L563.537 718.763L564.376 722.653L566.825 725.03L567.625 726.385L566.183 729.658L565.953 732.978L566.096 733.596L567.181 734.642L567.554 743.025L567.997 743.809L568.615 744.095L569.716 743.366L570.216 744.396L570.358 745.64L569.685 745.727L569.067 745.323L567.363 746.226L566.88 751.717L567.696 755.418L566.88 756.487L567.324 759.245L568.623 761.931L567.395 765.275L566.65 771.011L564.202 777.707L563.719 777.564L563.204 776.479L563.505 775.092L562.19 773.404L561.817 773.88L562.071 777.358L563.727 778.547L562.412 780.924L560.067 781.851L554.164 786.201L550.163 789.862L544.799 796.209L543.31 798.895V798.918H543.318ZM568.885 760.956L568.671 760.283L569.027 757.779L570.113 754.348L569.542 752.66L569.772 751.202L571.776 750.117L572.093 750.204L573.036 751.551L572.268 755.212L571.095 756.44L570.255 758.183L570.54 759.855L568.892 760.956H568.885ZM568.243 726.108L565.573 723.216L569.217 719.729L569.574 719.785L570.501 721.29L569.273 723.176L568.243 726.108Z" fill="black" fill-opacity="0.16"/>
<path d="M579.461 698.692L579.232 696.79L577.203 695.974L576.158 691.252L576.728 688.463L573.67 687.631L572.585 687.876L571.008 691.838L570.065 693.05L568.552 692.29L568.053 691.173L569.043 686.45L570.319 685.507L570.517 684.937L568.211 683.122L565.937 682.94L563.679 683.209L562.966 682.663L558.094 683.423L554.687 683.598L553.245 683.296L552.389 682.742L551.914 679.826L553.744 676.791L554.101 675.286L553.744 674.66L552.889 674.232L551.573 671.411L551.661 670.135L550.948 669.161L549.989 668.749L548.262 667.116L546.13 662.814L546.645 662.029L546.756 659.51L544.895 657.339L544.348 654.708L544.593 653.551L545.148 652.719L545.116 648.805L543.841 646.285L538.707 642.236L537.091 640.017L532.844 641.246L525.254 641.063L524.311 640.295L521.95 640.097L521.348 640.58L518.892 640.477L517.862 638.591L516.959 637.862L511.944 636.721L509.44 635.517L508.323 634.091L504.631 634.106L503.102 634.875L501.216 634.693L497.445 633.132L493.825 632.474L491.709 631.341L490.037 630.929L488.992 631.46L488.508 632.316L486.781 633.203L482.091 632.791L476.355 632.95L470.88 632.023L466.23 635.295L467.434 633.75L468.48 631.547L470.278 629.915L481.085 623.425L483.874 620.755L485.672 617.277L488.144 614.86L488.714 613.133L490.774 611.659L491.178 609.916L490.679 608.711L493.539 605.478L495.266 602.134L495.369 600.787L494.926 598.03L495.251 597.475L496.621 596.731L500.337 591.525L500.567 587.333L501.454 584.932L502.896 584.504L503.942 583.585L506.786 579.75L508.529 578.292L509.203 577.959L511.072 577.904L513.219 576.787L513.623 576.216L514.194 572.698L515.937 571.082L519.011 569.497L521.76 568.966L523.804 566.549L525.951 565.678L527.021 565.876L529.493 568.094L533.137 568.205L539.269 569.576L541.654 569.061L543.968 569.378L546.828 568.538L549.941 570.567L552.326 571.7L552.144 573.015L552.619 575.044L554.346 578.031L555.25 578.07L556.018 577.611L556.977 576.264L557.563 574.647L557.935 574.378L558.72 574.449L559.235 575.004L559.591 576.375L559.607 580.352L561.326 581.113L561.913 580.471L561.524 576.842L562.222 575.139L562.863 574.449L574.557 573.49L575.999 571.7L578.146 573.784L579.747 574.402L583.724 573.411L584.35 571.993L584.065 571.335L584.508 570.464L587.915 570.305L590.292 571.422L591.504 570.503L593.374 570.091L598.032 574.885L598.318 576.375L597.502 577.817L597.09 581.208L597.921 582.08L600.623 583.807L601.194 586.026L601.106 586.826L598.936 589.726L598.682 592.499L599.815 593.561L600.259 594.433L600.789 597.594L602.651 600.169L603.84 603.014L603.8 604.226L606.106 604.155L607.223 603.711L607.627 603.196L609.053 603.125L614.345 605.011L614.678 605.542L614.607 607.356L613.608 610.47L610.946 614.361L611.319 618.568L611.049 623.505L610.289 625.739L611.319 628.029L613.862 629.804L616.453 630.992L617.182 633.449L615.454 634.447L618.346 639.178L619.963 639.534L622.838 639.193L623.092 639.954L628.266 638.528L629.066 639.13L630.936 638.67L632.005 637.268L632.076 636.064L631.736 635.723L631.981 632.435L633.685 631.959L633.811 632.458L633.312 633.156L633.328 633.845L636.672 633.956L640.086 633.599L642.645 632.641L644.404 630.866L647.161 629.408L650.322 629.091L652.097 628.045L653.911 628.813L654.712 630.485L656.471 632.759L658.998 633.314L663.498 632.553L665.93 632.569L667 634.915L664.639 637.989L662.492 639.003L658.53 639.518L657.817 639.304L654.458 640.746L652.897 642.395L651.337 647.402L651.408 647.989L653.737 650.461L654.426 650.833L654.339 651.119L651.923 651.721L650.41 650.548L648.294 652.133L647.676 653.06L648.064 653.377L646.979 654.288L642.376 656.507L639.159 657.505L638.755 658.131L638.811 659.502L639.524 661.72L639.064 662.323L637.06 662.695L636.062 661.784L634.144 661.372L629.684 660.659L628.456 660.873L626.57 661.356L624.098 662.529L623.385 663.258L621.658 666.332L619.788 667.148L619.075 666.974L619.907 666.3L619.218 664.557L617.546 663.345L616.358 665.104L616.73 666.173L616.302 667.045L605.408 673.107L604.054 674.279L603.61 675.935L598.936 680.222L594.285 683.011L591.536 683.772L585.102 688.36L581.775 691.165L580.816 691.276L580.19 692.163L581.474 692.781L582.417 692.868L583.748 692.353V693.439L582.86 695.309L580.975 696.521L579.461 698.637V698.692ZM642.82 665.785L640.617 664.858L638.961 665.112L638.264 664.565L638.407 663.448L639.761 662.521L641.322 659.874L642.352 660.231L643.295 661.158L643.477 665.318L642.82 665.777V665.785Z" fill="black" fill-opacity="0.16"/>
<path d="M620.596 403.972L612.935 406L610.447 407.918L606.787 409.495H604.569L598.088 410.921L594.483 413.892L591.94 415.176L591.282 414.835L589.119 411.087L588.335 411.048L587.606 415.77L586.616 415.881L581.822 414.906L577.346 412.807L578.146 410.572L577.829 409.51L571.349 410.271L567.403 409.788L566.603 410.556L566.175 411.983L565.105 413.052L563.473 412.981L562.602 408.552L561.017 403.243L559.528 400.557L557.88 398.687L556.192 400.073L554.093 403.488L551.764 411.983L550.86 412.315L545.037 410.271L540.616 407.823L534.999 407.252L531.854 405.778L528.423 405.208L529.168 401.864L530.911 399.178L530.95 396.73L530.15 397.157L527.56 400.145L526.617 401.904L526.332 404.59L525.848 405.232L524.707 405.2L523.337 404.471L521.934 399.693L522.996 395.747L522.37 391.389L521.625 390.557L521.61 388.315L522.283 383.584L520.706 380.367L520.778 379.654L521.95 378.378L522.18 377.134L520.191 375.217L520.104 373.989L522.79 365.423L522.846 361.208L523.614 356.961L526.387 349.394L526.918 349.005L527.536 347.793L528.162 343.3L529.738 341.51L530.539 338.808L531.465 337.35L533.779 332.073L535.395 325.71L537.043 323.452L538.746 321.875L540.474 319.474L541.947 316.724L543.904 315.409L545.409 315.179L546.455 313.967L547.802 311.764L548.056 310.346L550.488 305.711L552.049 304.57L554.568 297.208L555.511 291.432L555.297 291.004L554.235 290.545L551.851 288.057L550.995 286.702L550.765 285.442L550.963 284.626L552.976 282.209L554.822 279.206L554.735 275.387L554.117 272.273L554.386 271.774L557.92 269.23L562.792 267.598L566.365 265.87L566.706 265.157L566.492 262.994L567.72 261.18L569.883 259.262L571.729 259.048L571.998 257.131L571.586 255.411L571.943 254.754L574.026 254.096L574.938 253.406L576.269 249.476L574.811 247.559L574.684 245.554L575.096 245.15L576.483 245.039L577.512 244.508L578.043 243.565L578.083 242.654L576.284 240.982L575.041 240.784L574.486 240.34L573.028 237.963L571.182 237.789L568.512 238.146L565.24 236.989L566.001 236.07L569.748 233.423L572.553 232.662L573.797 232.734L577.774 234.905L579.778 235.016L581.133 234.271L583.621 234.683L584.461 235.673L584.572 237.147L584.976 237.607L586.719 237.646L591.583 239.691L592.788 241.164L593.461 246.172L594.372 248.32L594.071 253.636L594.404 255.181L595.362 256.798L595.347 257.424L592.819 266.219L592.376 269.61L592.78 271.037L592.423 273.311L589.92 276.227L587.4 277.185L587.147 278.2L589.92 280.085L590.522 279.697L592.479 280.038L592.835 280.537L592.993 281.797L592.106 283.501L593.318 285.561L594.578 285.458L598.864 291.408L600.164 292.621L603.42 296.939L606.478 295.022L612.586 293.674L615.161 295.418L615.272 297.922L614.361 302.573L614.916 304.506L610.067 305.005L608.15 305.774L607.334 306.558L606.359 308.603L605.313 312.438L605.844 314.3L602.081 317.945L601.709 318.943L601.994 319.545L604.965 319.957L606.312 320.948L607.373 323.222L607.46 325.599L608.348 327.089L613.894 329.878L614.02 330.638L611.675 333.229L611.858 335.591L614.916 337.904L616.334 342.009L618.251 344.869L619.265 345.123L621.809 344.822L623.235 345.25L624.407 345.876L625.279 347.048L627.109 347.991L631.316 348.292L630.325 349.219L630.009 350.622L629.208 351.295L623.75 354.187L619.162 357.935L618.893 358.466L620.739 361.041L620.224 361.596L618.782 361.984L617.499 362.856L615.328 367.848L613.886 368.878L613.173 370.534L613.498 371.849L616.16 374.638L621.294 375.597L623.964 377.016L624.035 378.101L623.235 378.743L620.319 379.9L619.701 381.271L619.828 381.984L620.327 382.459L621.801 382.205L623.116 382.618L623.948 383.346L624.36 384.258L622.989 385.272L621.341 385.874L618.552 388.259L618.283 389.471L618.212 393.647L618.711 395.438L620.058 396.381L621.555 396.722L622.141 397.078L622.387 397.68L622.458 399.194L620.517 402.601L620.573 403.932L620.596 403.972Z" fill="black" fill-opacity="0.16"/>
</g>
<defs>
<clipPath id="clip0_274_74">
<rect width="877" height="915" fill="white"/>
</clipPath>
</defs>
</svg>
