<svg width="774" height="274" viewBox="0 0 774 274" fill="none" xmlns="http://www.w3.org/2000/svg">
<path d="M30.9 79.65V58.35H50.55C54.35 58.35 57.6 57.6 60.3 56.1C63.1 54.6 65.25 52.5 66.75 49.8C68.25 47 69 43.8 69 40.2C69 36.4 68.25 33.15 66.75 30.45C65.25 27.65 63.1 25.55 60.3 24.15C57.6 22.65 54.35 21.9 50.55 21.9H30.9V0.599991H49.35C58.65 0.599991 66.6 2.14999 73.2 5.24999C79.9 8.35 85 12.75 88.5 18.45C92.1 24.15 93.9 31 93.9 39V41.4C93.9 49.2 92.1 56 88.5 61.8C85 67.5 79.9 71.9 73.2 75C66.6 78.1 58.65 79.65 49.35 79.65H30.9ZM9.3 111V0.599991H33.9V111H9.3ZM137.123 113.85C130.123 113.85 123.923 112.65 118.523 110.25C113.223 107.85 108.773 104.65 105.173 100.65C101.673 96.55 98.9734 92 97.0734 87C95.2734 81.9 94.3734 76.7 94.3734 71.4V68.4C94.3734 62.9 95.2734 57.65 97.0734 52.65C98.9734 47.55 101.673 43 105.173 39C108.673 35 113.023 31.85 118.223 29.55C123.523 27.15 129.523 25.95 136.223 25.95C145.023 25.95 152.423 27.95 158.423 31.95C164.523 35.85 169.173 41 172.373 47.4C175.573 53.7 177.173 60.6 177.173 68.1V76.2H104.423V62.55H162.623L154.823 68.85C154.823 63.95 154.123 59.75 152.723 56.25C151.323 52.75 149.223 50.1 146.423 48.3C143.723 46.4 140.323 45.45 136.223 45.45C132.023 45.45 128.473 46.4 125.573 48.3C122.673 50.2 120.473 53 118.973 56.7C117.473 60.3 116.723 64.75 116.723 70.05C116.723 74.95 117.423 79.25 118.823 82.95C120.223 86.55 122.423 89.35 125.423 91.35C128.423 93.35 132.323 94.35 137.123 94.35C141.523 94.35 145.123 93.5 147.923 91.8C150.723 90.1 152.623 88 153.623 85.5H175.673C174.473 91 172.123 95.9 168.623 100.2C165.123 104.5 160.723 107.85 155.423 110.25C150.123 112.65 144.023 113.85 137.123 113.85ZM185.577 111V28.8H204.627V64.05H204.177C204.177 52.45 206.627 43.5 211.527 37.2C216.527 30.9 223.727 27.75 233.127 27.75H236.277V48.45H230.277C223.677 48.45 218.577 50.25 214.977 53.85C211.377 57.35 209.577 62.45 209.577 69.15V111H185.577ZM273.172 143.7C269.172 143.7 265.072 143.55 260.872 143.25C256.672 142.95 252.822 142.55 249.322 142.05V121.8C252.822 122.3 256.672 122.7 260.872 123C265.172 123.4 269.072 123.6 272.572 123.6C279.072 123.6 284.322 122.85 288.322 121.35C292.422 119.85 295.422 117.55 297.322 114.45C299.222 111.45 300.172 107.55 300.172 102.75V86.4L304.522 76.8C304.322 84.1 302.872 90.35 300.172 95.55C297.572 100.75 293.922 104.75 289.222 107.55C284.522 110.25 278.922 111.6 272.422 111.6C266.822 111.6 261.722 110.6 257.122 108.6C252.622 106.5 248.772 103.6 245.572 99.9C242.372 96.2 239.922 91.9 238.222 87C236.522 82 235.672 76.6 235.672 70.8V67.35C235.672 61.55 236.572 56.15 238.372 51.15C240.172 46.15 242.772 41.8 246.172 38.1C249.572 34.4 253.622 31.55 258.322 29.55C263.022 27.45 268.222 26.4 273.922 26.4C280.522 26.4 286.222 27.85 291.022 30.75C295.922 33.65 299.772 37.9 302.572 43.5C305.372 49.1 306.872 55.85 307.072 63.75L303.772 64.65V28.8H322.822V101.25C322.822 111.35 321.022 119.5 317.422 125.7C313.822 131.9 308.322 136.45 300.922 139.35C293.622 142.25 284.372 143.7 273.172 143.7ZM279.922 91.35C283.622 91.35 286.972 90.55 289.972 88.95C292.972 87.25 295.322 84.85 297.022 81.75C298.822 78.65 299.722 74.9 299.722 70.5V66.15C299.722 61.85 298.772 58.25 296.872 55.35C295.072 52.35 292.672 50.1 289.672 48.6C286.672 47 283.472 46.2 280.072 46.2C276.072 46.2 272.522 47.15 269.422 49.05C266.322 50.95 263.922 53.6 262.222 57C260.522 60.4 259.672 64.4 259.672 69C259.672 73.7 260.522 77.75 262.222 81.15C264.022 84.45 266.422 87 269.422 88.8C272.522 90.5 276.022 91.35 279.922 91.35ZM363.854 113.55C354.354 113.55 347.054 110.5 341.954 104.4C336.854 98.2 334.304 88.9 334.304 76.5V28.8H358.304V77.7C358.304 82.1 359.554 85.6 362.054 88.2C364.554 90.8 367.904 92.1 372.104 92.1C376.404 92.1 379.904 90.75 382.604 88.05C385.304 85.35 386.654 81.7 386.654 77.1V28.8H410.654V111H391.604V76.35H393.254C393.254 84.65 392.154 91.6 389.954 97.2C387.854 102.7 384.704 106.8 380.504 109.5C376.304 112.2 371.104 113.55 364.904 113.55H363.854ZM425.284 111V28.8H444.334V64.05H442.984C442.984 55.65 444.034 48.65 446.134 43.05C448.334 37.45 451.634 33.25 456.034 30.45C460.434 27.65 465.784 26.25 472.084 26.25H473.134C482.734 26.25 490.034 29.4 495.034 35.7C500.134 41.9 502.684 51.35 502.684 64.05V111H478.684V62.7C478.684 58.3 477.384 54.7 474.784 51.9C472.184 49.1 468.684 47.7 464.284 47.7C459.784 47.7 456.134 49.15 453.334 52.05C450.634 54.85 449.284 58.55 449.284 63.15V111H425.284ZM552.986 112.05C544.686 112.05 537.986 111.05 532.886 109.05C527.786 106.95 524.036 103.5 521.636 98.7C519.336 93.8 518.186 87.2 518.186 78.9V6.59999H540.536V79.8C540.536 83.7 541.536 86.7 543.536 88.8C545.636 90.8 548.586 91.8 552.386 91.8H564.536V112.05H552.986ZM505.736 46.35V28.8H564.536V46.35H505.736ZM622.532 111V86.7H618.482V60.3C618.482 56.1 617.482 52.95 615.482 50.85C613.482 48.75 610.282 47.7 605.882 47.7C603.682 47.7 600.782 47.75 597.182 47.85C593.582 47.95 589.882 48.1 586.082 48.3C582.282 48.5 578.832 48.7 575.732 48.9V28.65C578.032 28.45 580.732 28.25 583.832 28.05C586.932 27.85 590.132 27.7 593.432 27.6C596.732 27.5 599.832 27.45 602.732 27.45C611.132 27.45 618.182 28.65 623.882 31.05C629.682 33.45 634.082 37.1 637.082 42C640.082 46.8 641.582 53 641.582 60.6V111H622.532ZM596.282 113.1C590.382 113.1 585.182 112.05 580.682 109.95C576.282 107.85 572.832 104.85 570.332 100.95C567.832 96.95 566.582 92.2 566.582 86.7C566.582 80.7 568.132 75.8 571.232 72C574.332 68.1 578.682 65.25 584.282 63.45C589.882 61.55 596.332 60.6 603.632 60.6H621.182V73.95H603.482C599.282 73.95 596.032 75 593.732 77.1C591.532 79.1 590.432 81.85 590.432 85.35C590.432 88.65 591.532 91.35 593.732 93.45C596.032 95.45 599.282 96.45 603.482 96.45C606.182 96.45 608.582 96 610.682 95.1C612.882 94.1 614.682 92.45 616.082 90.15C617.482 87.85 618.282 84.65 618.482 80.55L624.182 86.55C623.682 92.25 622.282 97.05 619.982 100.95C617.782 104.85 614.682 107.85 610.682 109.95C606.782 112.05 601.982 113.1 596.282 113.1ZM685.644 113.55C673.944 113.55 664.794 111.15 658.194 106.35C651.594 101.55 648.094 94.8 647.694 86.1H668.994C669.394 88.7 670.944 91.05 673.644 93.15C676.444 95.15 680.594 96.15 686.094 96.15C690.294 96.15 693.744 95.45 696.444 94.05C699.244 92.55 700.644 90.45 700.644 87.75C700.644 85.35 699.594 83.45 697.494 82.05C695.394 80.55 691.644 79.5 686.244 78.9L679.794 78.3C669.894 77.3 662.444 74.55 657.444 70.05C652.544 65.55 650.094 59.8 650.094 52.8C650.094 47 651.544 42.15 654.444 38.25C657.344 34.35 661.344 31.4 666.444 29.4C671.644 27.4 677.544 26.4 684.144 26.4C694.744 26.4 703.294 28.75 709.794 33.45C716.294 38.05 719.694 44.75 719.994 53.55H698.694C698.294 50.85 696.894 48.6 694.494 46.8C692.094 44.9 688.544 43.95 683.844 43.95C680.144 43.95 677.194 44.65 674.994 46.05C672.794 47.45 671.694 49.35 671.694 51.75C671.694 54.05 672.644 55.8 674.544 57C676.444 58.2 679.544 59.05 683.844 59.55L690.294 60.15C700.394 61.25 708.244 64.05 713.844 68.55C719.444 73.05 722.244 79.1 722.244 86.7C722.244 92.2 720.744 97 717.744 101.1C714.744 105.1 710.494 108.2 704.994 110.4C699.494 112.5 693.044 113.55 685.644 113.55Z" fill="white" fill-opacity="0.03"/>
<path d="M9.75 244V161.05C9.75 151.55 12.45 144.5 17.85 139.9C23.25 135.3 31.2 133 41.7 133H52.2V151H40.65C37.95 151 35.85 151.75 34.35 153.25C32.85 154.75 32.1 156.85 32.1 159.55V244H9.75ZM2.12342e-07 181V163.45H53.4V181H2.12342e-07ZM57.4324 244V161.8H76.4824V197.05H76.0324C76.0324 185.45 78.4824 176.5 83.3824 170.2C88.3824 163.9 95.5824 160.75 104.982 160.75H108.132V181.45H102.132C95.5324 181.45 90.4324 183.25 86.8324 186.85C83.2324 190.35 81.4324 195.45 81.4324 202.15V244H57.4324ZM150.278 246.85C143.278 246.85 137.078 245.65 131.678 243.25C126.378 240.85 121.928 237.65 118.328 233.65C114.828 229.55 112.128 225 110.228 220C108.428 214.9 107.528 209.7 107.528 204.4V201.4C107.528 195.9 108.428 190.65 110.228 185.65C112.128 180.55 114.828 176 118.328 172C121.828 168 126.178 164.85 131.378 162.55C136.678 160.15 142.678 158.95 149.378 158.95C158.178 158.95 165.578 160.95 171.578 164.95C177.678 168.85 182.328 174 185.528 180.4C188.728 186.7 190.328 193.6 190.328 201.1V209.2H117.578V195.55H175.778L167.978 201.85C167.978 196.95 167.278 192.75 165.878 189.25C164.478 185.75 162.378 183.1 159.578 181.3C156.878 179.4 153.478 178.45 149.378 178.45C145.178 178.45 141.628 179.4 138.728 181.3C135.828 183.2 133.628 186 132.128 189.7C130.628 193.3 129.878 197.75 129.878 203.05C129.878 207.95 130.578 212.25 131.978 215.95C133.378 219.55 135.578 222.35 138.578 224.35C141.578 226.35 145.478 227.35 150.278 227.35C154.678 227.35 158.278 226.5 161.078 224.8C163.878 223.1 165.778 221 166.778 218.5H188.828C187.628 224 185.278 228.9 181.778 233.2C178.278 237.5 173.878 240.85 168.578 243.25C163.278 245.65 157.178 246.85 150.278 246.85ZM258.281 274V219.7L264.731 211C264.531 218.4 263.031 224.8 260.231 230.2C257.531 235.5 253.731 239.6 248.831 242.5C243.931 245.3 238.181 246.7 231.581 246.7C225.881 246.7 220.681 245.65 215.981 243.55C211.281 241.35 207.231 238.4 203.831 234.7C200.531 230.9 197.981 226.45 196.181 221.35C194.481 216.25 193.631 210.75 193.631 204.85V201.4C193.631 195.5 194.531 190 196.331 184.9C198.231 179.8 200.881 175.35 204.281 171.55C207.781 167.75 211.881 164.8 216.581 162.7C221.381 160.5 226.681 159.4 232.481 159.4C239.281 159.4 245.131 160.9 250.031 163.9C255.031 166.8 258.931 171.05 261.731 176.65C264.531 182.15 266.031 188.9 266.231 196.9H263.381V161.8H282.431V274H258.281ZM238.631 226.45C242.331 226.45 245.681 225.65 248.681 224.05C251.781 222.35 254.231 219.9 256.031 216.7C257.931 213.5 258.881 209.65 258.881 205.15V199.6C258.881 195.2 257.931 191.5 256.031 188.5C254.131 185.5 251.631 183.2 248.531 181.6C245.431 180 242.131 179.2 238.631 179.2C234.531 179.2 230.881 180.25 227.681 182.35C224.581 184.35 222.131 187.15 220.331 190.75C218.531 194.25 217.631 198.4 217.631 203.2C217.631 207.9 218.531 212 220.331 215.5C222.131 219 224.581 221.7 227.681 223.6C230.881 225.5 234.531 226.45 238.631 226.45ZM324.45 246.55C314.95 246.55 307.65 243.5 302.55 237.4C297.45 231.2 294.9 221.9 294.9 209.5V161.8H318.9V210.7C318.9 215.1 320.15 218.6 322.65 221.2C325.15 223.8 328.5 225.1 332.7 225.1C337 225.1 340.5 223.75 343.2 221.05C345.9 218.35 347.25 214.7 347.25 210.1V161.8H371.25V244H352.2V209.35H353.85C353.85 217.65 352.75 224.6 350.55 230.2C348.45 235.7 345.3 239.8 341.1 242.5C336.9 245.2 331.7 246.55 325.5 246.55H324.45ZM423.53 246.85C416.53 246.85 410.33 245.65 404.93 243.25C399.63 240.85 395.18 237.65 391.58 233.65C388.08 229.55 385.38 225 383.48 220C381.68 214.9 380.78 209.7 380.78 204.4V201.4C380.78 195.9 381.68 190.65 383.48 185.65C385.38 180.55 388.08 176 391.58 172C395.08 168 399.43 164.85 404.63 162.55C409.93 160.15 415.93 158.95 422.63 158.95C431.43 158.95 438.83 160.95 444.83 164.95C450.93 168.85 455.58 174 458.78 180.4C461.98 186.7 463.58 193.6 463.58 201.1V209.2H390.83V195.55H449.03L441.23 201.85C441.23 196.95 440.53 192.75 439.13 189.25C437.73 185.75 435.63 183.1 432.83 181.3C430.13 179.4 426.73 178.45 422.63 178.45C418.43 178.45 414.88 179.4 411.98 181.3C409.08 183.2 406.88 186 405.38 189.7C403.88 193.3 403.13 197.75 403.13 203.05C403.13 207.95 403.83 212.25 405.23 215.95C406.63 219.55 408.83 222.35 411.83 224.35C414.83 226.35 418.73 227.35 423.53 227.35C427.93 227.35 431.53 226.5 434.33 224.8C437.13 223.1 439.03 221 440.03 218.5H462.08C460.88 224 458.53 228.9 455.03 233.2C451.53 237.5 447.13 240.85 441.83 243.25C436.53 245.65 430.43 246.85 423.53 246.85ZM471.983 244V161.8H491.033V197.05H489.683C489.683 188.65 490.733 181.65 492.833 176.05C495.033 170.45 498.333 166.25 502.733 163.45C507.133 160.65 512.483 159.25 518.783 159.25H519.833C529.433 159.25 536.733 162.4 541.733 168.7C546.833 174.9 549.383 184.35 549.383 197.05V244H525.383V195.7C525.383 191.3 524.083 187.7 521.483 184.9C518.883 182.1 515.383 180.7 510.983 180.7C506.483 180.7 502.833 182.15 500.033 185.05C497.333 187.85 495.983 191.55 495.983 196.15V244H471.983ZM599.685 245.05C591.385 245.05 584.685 244.05 579.585 242.05C574.485 239.95 570.735 236.5 568.335 231.7C566.035 226.8 564.885 220.2 564.885 211.9V139.6H587.235V212.8C587.235 216.7 588.235 219.7 590.235 221.8C592.335 223.8 595.285 224.8 599.085 224.8H611.235V245.05H599.685ZM552.435 179.35V161.8H611.235V179.35H552.435ZM657.231 246.85C650.231 246.85 644.031 245.65 638.631 243.25C633.331 240.85 628.881 237.65 625.281 233.65C621.781 229.55 619.081 225 617.181 220C615.381 214.9 614.481 209.7 614.481 204.4V201.4C614.481 195.9 615.381 190.65 617.181 185.65C619.081 180.55 621.781 176 625.281 172C628.781 168 633.131 164.85 638.331 162.55C643.631 160.15 649.631 158.95 656.331 158.95C665.131 158.95 672.531 160.95 678.531 164.95C684.631 168.85 689.281 174 692.481 180.4C695.681 186.7 697.281 193.6 697.281 201.1V209.2H624.531V195.55H682.731L674.931 201.85C674.931 196.95 674.231 192.75 672.831 189.25C671.431 185.75 669.331 183.1 666.531 181.3C663.831 179.4 660.431 178.45 656.331 178.45C652.131 178.45 648.581 179.4 645.681 181.3C642.781 183.2 640.581 186 639.081 189.7C637.581 193.3 636.831 197.75 636.831 203.05C636.831 207.95 637.531 212.25 638.931 215.95C640.331 219.55 642.531 222.35 645.531 224.35C648.531 226.35 652.431 227.35 657.231 227.35C661.631 227.35 665.231 226.5 668.031 224.8C670.831 223.1 672.731 221 673.731 218.5H695.781C694.581 224 692.231 228.9 688.731 233.2C685.231 237.5 680.831 240.85 675.531 243.25C670.231 245.65 664.131 246.85 657.231 246.85ZM736.884 246.55C725.184 246.55 716.034 244.15 709.434 239.35C702.834 234.55 699.334 227.8 698.934 219.1H720.234C720.634 221.7 722.184 224.05 724.884 226.15C727.684 228.15 731.834 229.15 737.334 229.15C741.534 229.15 744.984 228.45 747.684 227.05C750.484 225.55 751.884 223.45 751.884 220.75C751.884 218.35 750.834 216.45 748.734 215.05C746.634 213.55 742.884 212.5 737.484 211.9L731.034 211.3C721.134 210.3 713.684 207.55 708.684 203.05C703.784 198.55 701.334 192.8 701.334 185.8C701.334 180 702.784 175.15 705.684 171.25C708.584 167.35 712.584 164.4 717.684 162.4C722.884 160.4 728.784 159.4 735.384 159.4C745.984 159.4 754.534 161.75 761.034 166.45C767.534 171.05 770.934 177.75 771.234 186.55H749.934C749.534 183.85 748.134 181.6 745.734 179.8C743.334 177.9 739.784 176.95 735.084 176.95C731.384 176.95 728.434 177.65 726.234 179.05C724.034 180.45 722.934 182.35 722.934 184.75C722.934 187.05 723.884 188.8 725.784 190C727.684 191.2 730.784 192.05 735.084 192.55L741.534 193.15C751.634 194.25 759.484 197.05 765.084 201.55C770.684 206.05 773.484 212.1 773.484 219.7C773.484 225.2 771.984 230 768.984 234.1C765.984 238.1 761.734 241.2 756.234 243.4C750.734 245.5 744.284 246.55 736.884 246.55Z" fill="#FAF2DE" fill-opacity="0.09"/>
</svg>
